<svg width="50" height="50" viewBox="0 0 50 50" fill="none" xmlns="http://www.w3.org/2000/svg">
<path d="M34.0352 44.0675H15.9622C15.8241 44.0675 15.6916 44.0127 15.594 43.915C15.4963 43.8173 15.4414 43.6848 15.4414 43.5467C15.4414 43.4086 15.4963 43.2761 15.594 43.1784C15.6916 43.0808 15.8241 43.0259 15.9622 43.0259H34.0352C34.1733 43.0259 34.3058 43.0808 34.4034 43.1784C34.5011 43.2761 34.556 43.4086 34.556 43.5467C34.556 43.6848 34.5011 43.8173 34.4034 43.915C34.3058 44.0127 34.1733 44.0675 34.0352 44.0675Z" fill="black"/>
<path d="M46.3555 39.7863H3.64714C2.95647 39.7863 2.29409 39.5119 1.80571 39.0236C1.31734 38.5352 1.04297 37.8728 1.04297 37.1821V8.53629C1.04297 7.84563 1.31734 7.18325 1.80571 6.69487C2.29409 6.2065 2.95647 5.93213 3.64714 5.93213H46.3555C47.0461 5.93213 47.7085 6.2065 48.1969 6.69487C48.6853 7.18325 48.9596 7.84563 48.9596 8.53629V37.1821C48.9596 37.8728 48.6853 38.5352 48.1969 39.0236C47.7085 39.5119 47.0461 39.7863 46.3555 39.7863ZM3.64714 6.9738C3.23273 6.9738 2.83531 7.13842 2.54228 7.43144C2.24926 7.72447 2.08464 8.12189 2.08464 8.53629V37.1821C2.08464 37.5965 2.24926 37.994 2.54228 38.287C2.83531 38.58 3.23273 38.7446 3.64714 38.7446H46.3555C46.7699 38.7446 47.1673 38.58 47.4603 38.287C47.7534 37.994 47.918 37.5965 47.918 37.1821V8.53629C47.918 8.12189 47.7534 7.72447 47.4603 7.43144C47.1673 7.13842 46.7699 6.9738 46.3555 6.9738H3.64714Z" fill="black"/>
<path d="M30.8947 44.0675H19.103C19.0129 44.0669 18.9245 44.0429 18.8465 43.9979C18.7684 43.9528 18.7034 43.8883 18.6578 43.8107C18.6121 43.733 18.5874 43.6448 18.586 43.5547C18.5846 43.4647 18.6066 43.3757 18.6499 43.2967L21.0301 39.0155C21.075 38.9333 21.1414 38.8647 21.222 38.8171C21.3027 38.7694 21.3947 38.7444 21.4884 38.7446H28.5092C28.6029 38.7444 28.695 38.7694 28.7756 38.8171C28.8563 38.8647 28.9226 38.9333 28.9676 39.0155L31.3478 43.2967C31.391 43.3757 31.413 43.4647 31.4117 43.5547C31.4103 43.6448 31.3855 43.733 31.3399 43.8107C31.2942 43.8883 31.2292 43.9528 31.1512 43.9979C31.0731 44.0429 30.9847 44.0669 30.8947 44.0675ZM19.9884 43.0259H30.0092L28.2072 39.7863H21.7905L19.9884 43.0259Z" fill="black"/>
<path d="M48.4388 35.0314H1.5638C1.42567 35.0314 1.29319 34.9765 1.19552 34.8789C1.09784 34.7812 1.04297 34.6487 1.04297 34.5106C1.04297 34.3724 1.09784 34.24 1.19552 34.1423C1.29319 34.0446 1.42567 33.9897 1.5638 33.9897H48.4388C48.5769 33.9897 48.7094 34.0446 48.8071 34.1423C48.9048 34.24 48.9596 34.3724 48.9596 34.5106C48.9596 34.6487 48.9048 34.7812 48.8071 34.8789C48.7094 34.9765 48.5769 35.0314 48.4388 35.0314Z" fill="black"/>
<path d="M14.582 30.9635H5.52474C5.38661 30.9635 5.25413 30.9087 5.15645 30.811C5.05878 30.7133 5.00391 30.5808 5.00391 30.4427C5.00391 30.3046 5.05878 30.1721 5.15645 30.0744C5.25413 29.9767 5.38661 29.9219 5.52474 29.9219H14.582C14.7202 29.9219 14.8526 29.9767 14.9503 30.0744C15.048 30.1721 15.1029 30.3046 15.1029 30.4427C15.1029 30.5808 15.048 30.7133 14.9503 30.811C14.8526 30.9087 14.7202 30.9635 14.582 30.9635Z" fill="black"/>
<path d="M10.0612 28.047H5.52474C5.38661 28.047 5.25413 27.9922 5.15645 27.8945C5.05878 27.7968 5.00391 27.6643 5.00391 27.5262C5.00391 27.3881 5.05878 27.2556 5.15645 27.1579C5.25413 27.0602 5.38661 27.0054 5.52474 27.0054H10.0612C10.1993 27.0054 10.3318 27.0602 10.4295 27.1579C10.5272 27.2556 10.582 27.3881 10.582 27.5262C10.582 27.6643 10.5272 27.7968 10.4295 27.8945C10.3318 27.9922 10.1993 28.047 10.0612 28.047Z" fill="black"/>
<path d="M6.07422 19.9531C5.98803 19.9541 5.90294 19.9336 5.82658 19.8936C5.75022 19.8536 5.68499 19.7953 5.63672 19.7239C5.03917 18.8282 4.69597 17.7871 4.64373 16.7116C4.59148 15.6362 4.83215 14.5667 5.34006 13.6173C5.84798 12.6679 6.60408 11.8741 7.52772 11.3208C8.45137 10.7674 9.50791 10.4751 10.5846 10.4751C11.6614 10.4751 12.7179 10.7674 13.6415 11.3208C14.5652 11.8741 15.3213 12.6679 15.8292 13.6173C16.3371 14.5667 16.5778 15.6362 16.5255 16.7116C16.4733 17.7871 16.1301 18.8282 15.5326 19.7239C15.4946 19.781 15.4458 19.8301 15.3888 19.8683C15.3319 19.9066 15.268 19.9332 15.2008 19.9468C15.1336 19.9603 15.0643 19.9605 14.997 19.9472C14.9297 19.934 14.8657 19.9077 14.8086 19.8697C14.7515 19.8318 14.7024 19.7829 14.6642 19.726C14.6259 19.6691 14.5993 19.6052 14.5857 19.538C14.5722 19.4707 14.572 19.4015 14.5852 19.3342C14.5985 19.2669 14.6248 19.2029 14.6628 19.1458C15.158 18.4064 15.443 17.5464 15.4874 16.6577C15.5318 15.7689 15.3339 14.8848 14.9148 14.0998C14.4958 13.3147 13.8713 12.6583 13.1082 12.2006C12.345 11.7429 11.4719 11.5012 10.582 11.5012C9.69217 11.5012 8.81902 11.7429 8.05588 12.2006C7.29274 12.6583 6.66829 13.3147 6.24924 14.0998C5.83019 14.8848 5.63229 15.7689 5.67669 16.6577C5.72109 17.5464 6.00611 18.4064 6.5013 19.1458C6.57668 19.2606 6.60365 19.4006 6.57634 19.5352C6.54903 19.6698 6.46964 19.7882 6.35547 19.8645C6.27305 19.9222 6.17484 19.9532 6.07422 19.9531Z" fill="black"/>
<path d="M10.582 19.125C10.2854 19.125 9.99535 19.037 9.74868 18.8722C9.502 18.7074 9.30974 18.4731 9.19621 18.199C9.08268 17.9249 9.05298 17.6233 9.11085 17.3324C9.16873 17.0414 9.31159 16.7741 9.52137 16.5643C9.73115 16.3546 9.99843 16.2117 10.2894 16.1538C10.5804 16.0959 10.882 16.1257 11.1561 16.2392C11.4301 16.3527 11.6644 16.545 11.8292 16.7916C11.9941 17.0383 12.082 17.3283 12.082 17.625C12.0807 18.0224 11.9222 18.4031 11.6412 18.6841C11.3602 18.9652 10.9794 19.1236 10.582 19.125ZM10.582 17.1667C10.4914 17.1667 10.4028 17.1935 10.3274 17.2439C10.252 17.2943 10.1933 17.3659 10.1586 17.4496C10.1239 17.5334 10.1148 17.6255 10.1325 17.7144C10.1502 17.8033 10.1938 17.885 10.2579 17.9491C10.322 18.0132 10.4037 18.0568 10.4926 18.0745C10.5815 18.0922 10.6737 18.0831 10.7574 18.0484C10.8412 18.0138 10.9128 17.955 10.9631 17.8796C11.0135 17.8043 11.0404 17.7157 11.0404 17.625C11.035 17.5071 10.9844 17.3958 10.899 17.3143C10.8136 17.2328 10.7001 17.1874 10.582 17.1875V17.1667Z" fill="black"/>
<path d="M11.2778 17.4533C11.2092 17.4537 11.1413 17.4406 11.0778 17.4146C11.0144 17.3887 10.9566 17.3505 10.908 17.3023C10.8592 17.2538 10.8204 17.1962 10.794 17.1328C10.7675 17.0693 10.7539 17.0012 10.7539 16.9325C10.7539 16.8637 10.7675 16.7956 10.794 16.7322C10.8204 16.6687 10.8592 16.6111 10.908 16.5627L12.9913 14.4793C13.0894 14.3813 13.2224 14.3262 13.3611 14.3262C13.4998 14.3262 13.6328 14.3813 13.7309 14.4793C13.829 14.5774 13.8841 14.7104 13.8841 14.8491C13.8841 14.9878 13.829 15.1209 13.7309 15.2189L11.6476 17.3023C11.5989 17.3505 11.5412 17.3887 11.4777 17.4146C11.4143 17.4406 11.3463 17.4537 11.2778 17.4533Z" fill="black"/>
<path d="M44.8437 30.9635H27.474C27.3358 30.9635 27.2033 30.9087 27.1057 30.811C27.008 30.7133 26.9531 30.5808 26.9531 30.4427C26.9531 30.3046 27.008 30.1721 27.1057 30.0744C27.2033 29.9767 27.3358 29.9219 27.474 29.9219H44.8437C44.9819 29.9219 45.1144 29.9767 45.212 30.0744C45.3097 30.1721 45.3646 30.3046 45.3646 30.4427C45.3646 30.5808 45.3097 30.7133 45.212 30.811C45.1144 30.9087 44.9819 30.9635 44.8437 30.9635Z" fill="black"/>
<path d="M42.8958 30.9637C42.7577 30.9637 42.6252 30.9088 42.5275 30.8112C42.4299 30.7135 42.375 30.581 42.375 30.4429V18.6981C42.375 18.5599 42.4299 18.4275 42.5275 18.3298C42.6252 18.2321 42.7577 18.1772 42.8958 18.1772C43.034 18.1772 43.1664 18.2321 43.2641 18.3298C43.3618 18.4275 43.4167 18.5599 43.4167 18.6981V30.4429C43.4167 30.581 43.3618 30.7135 43.2641 30.8112C43.1664 30.9088 43.034 30.9637 42.8958 30.9637Z" fill="black"/>
<path d="M38.4427 30.9637C38.3046 30.9637 38.1721 30.9088 38.0744 30.8112C37.9767 30.7135 37.9219 30.581 37.9219 30.4429V22.8075C37.9219 22.6693 37.9767 22.5368 38.0744 22.4392C38.1721 22.3415 38.3046 22.2866 38.4427 22.2866C38.5808 22.2866 38.7133 22.3415 38.811 22.4392C38.9087 22.5368 38.9635 22.6693 38.9635 22.8075V30.4429C38.9635 30.581 38.9087 30.7135 38.811 30.8112C38.7133 30.9088 38.5808 30.9637 38.4427 30.9637Z" fill="black"/>
<path d="M33.9935 30.9634C33.8554 30.9634 33.7229 30.9085 33.6252 30.8108C33.5275 30.7132 33.4727 30.5807 33.4727 30.4425V20.703C33.4727 20.5648 33.5275 20.4324 33.6252 20.3347C33.7229 20.237 33.8554 20.1821 33.9935 20.1821C34.1316 20.1821 34.2641 20.237 34.3618 20.3347C34.4595 20.4324 34.5143 20.5648 34.5143 20.703V30.4425C34.5143 30.5807 34.4595 30.7132 34.3618 30.8108C34.2641 30.9085 34.1316 30.9634 33.9935 30.9634Z" fill="black"/>
<path d="M29.5482 30.9637C29.41 30.9637 29.2776 30.9088 29.1799 30.8112C29.0822 30.7135 29.0273 30.581 29.0273 30.4429V25.1043C29.0273 24.9662 29.0822 24.8337 29.1799 24.736C29.2776 24.6384 29.41 24.5835 29.5482 24.5835C29.6863 24.5835 29.8188 24.6384 29.9165 24.736C30.0141 24.8337 30.069 24.9662 30.069 25.1043V30.4429C30.069 30.581 30.0141 30.7135 29.9165 30.8112C29.8188 30.9088 29.6863 30.9637 29.5482 30.9637Z" fill="black"/>
<path d="M29.5456 21.224C29.2005 21.224 28.8631 21.1216 28.5762 20.9299C28.2893 20.7382 28.0657 20.4657 27.9336 20.1469C27.8015 19.8281 27.767 19.4772 27.8343 19.1388C27.9016 18.8003 28.0678 18.4894 28.3118 18.2454C28.5558 18.0014 28.8667 17.8352 29.2052 17.7679C29.5436 17.7006 29.8945 17.7351 30.2133 17.8672C30.5321 17.9992 30.8046 18.2229 30.9963 18.5098C31.188 18.7967 31.2904 19.1341 31.2904 19.4792C31.289 19.9415 31.1047 20.3845 30.7778 20.7114C30.4509 21.0383 30.0079 21.2226 29.5456 21.224ZM29.5456 18.776C29.4065 18.776 29.2706 18.8173 29.1549 18.8945C29.0393 18.9718 28.9492 19.0816 28.896 19.2101C28.8428 19.3386 28.8288 19.4799 28.856 19.6163C28.8831 19.7527 28.9501 19.878 29.0484 19.9764C29.1467 20.0747 29.272 20.1417 29.4084 20.1688C29.5448 20.1959 29.6862 20.182 29.8146 20.1288C29.9431 20.0756 30.0529 19.9854 30.1302 19.8698C30.2075 19.7542 30.2487 19.6182 30.2487 19.4792C30.2473 19.2931 30.1728 19.1151 30.0413 18.9835C29.9097 18.8519 29.7316 18.7774 29.5456 18.776Z" fill="black"/>
<path d="M33.9948 16.6356C33.6497 16.6356 33.3124 16.5333 33.0254 16.3415C32.7385 16.1498 32.5149 15.8773 32.3828 15.5585C32.2508 15.2397 32.2162 14.8889 32.2835 14.5504C32.3508 14.2119 32.517 13.901 32.761 13.657C33.0051 13.413 33.3159 13.2468 33.6544 13.1795C33.9929 13.1122 34.3437 13.1468 34.6625 13.2788C34.9813 13.4109 35.2538 13.6345 35.4455 13.9214C35.6373 14.2084 35.7396 14.5457 35.7396 14.8908C35.7396 15.3535 35.5558 15.7973 35.2285 16.1245C34.9013 16.4518 34.4575 16.6356 33.9948 16.6356ZM33.9948 14.1877C33.8557 14.1877 33.7198 14.2289 33.6042 14.3062C33.4885 14.3834 33.3984 14.4932 33.3452 14.6217C33.292 14.7502 33.278 14.8916 33.3052 15.028C33.3323 15.1644 33.3993 15.2896 33.4976 15.388C33.5959 15.4863 33.7212 15.5533 33.8576 15.5804C33.994 15.6075 34.1354 15.5936 34.2639 15.5404C34.3923 15.4872 34.5022 15.3971 34.5794 15.2814C34.6567 15.1658 34.6979 15.0299 34.6979 14.8908C34.6979 14.7985 34.6797 14.707 34.6444 14.6217C34.6091 14.5364 34.5573 14.4589 34.492 14.3936C34.4267 14.3283 34.3492 14.2765 34.2639 14.2412C34.1786 14.2059 34.0871 14.1877 33.9948 14.1877Z" fill="black"/>
<path d="M38.444 20.7606C38.0989 20.7606 37.7616 20.6582 37.4747 20.4665C37.1877 20.2748 36.9641 20.0023 36.832 19.6835C36.7 19.3647 36.6654 19.0139 36.7327 18.6754C36.8001 18.3369 36.9662 18.026 37.2103 17.782C37.4543 17.538 37.7652 17.3718 38.1036 17.3045C38.4421 17.2372 38.7929 17.2718 39.1117 17.4038C39.4305 17.5359 39.703 17.7595 39.8948 18.0464C40.0865 18.3334 40.1888 18.6707 40.1888 19.0158C40.1888 19.2449 40.1437 19.4718 40.056 19.6835C39.9683 19.8952 39.8398 20.0875 39.6778 20.2495C39.5157 20.4116 39.3234 20.5401 39.1117 20.6278C38.9 20.7154 38.6731 20.7606 38.444 20.7606ZM38.444 18.3127C38.3049 18.3127 38.169 18.3539 38.0534 18.4312C37.9377 18.5084 37.8476 18.6182 37.7944 18.7467C37.7412 18.8752 37.7273 19.0166 37.7544 19.153C37.7815 19.2894 37.8485 19.4146 37.9468 19.513C38.0452 19.6113 38.1704 19.6783 38.3068 19.7054C38.4432 19.7325 38.5846 19.7186 38.7131 19.6654C38.8416 19.6122 38.9514 19.5221 39.0286 19.4064C39.1059 19.2908 39.1471 19.1549 39.1471 19.0158C39.1471 18.8293 39.0731 18.6505 38.9412 18.5186C38.8093 18.3867 38.6305 18.3127 38.444 18.3127Z" fill="black"/>
<path d="M42.8945 16.4012C42.5492 16.4022 42.2114 16.3008 41.9238 16.1097C41.6361 15.9186 41.4117 15.6465 41.2788 15.3277C41.146 15.009 41.1107 14.658 41.1774 14.3192C41.2442 13.9804 41.4099 13.669 41.6537 13.4245C41.8975 13.18 42.2084 13.0133 42.547 12.9455C42.8856 12.8778 43.2367 12.912 43.5558 13.0439C43.8749 13.1758 44.1477 13.3995 44.3397 13.6865C44.5316 13.9736 44.6341 14.3111 44.6341 14.6564C44.6341 15.1183 44.451 15.5613 44.1249 15.8883C43.7988 16.2154 43.3564 16.3998 42.8945 16.4012ZM42.8945 13.9533C42.7552 13.9522 42.6188 13.9926 42.5025 14.0692C42.3862 14.1459 42.2952 14.2553 42.2412 14.3837C42.1872 14.5121 42.1725 14.6536 42.1991 14.7904C42.2256 14.9271 42.2922 15.0529 42.3903 15.1517C42.4884 15.2506 42.6137 15.3181 42.7502 15.3456C42.8868 15.3732 43.0284 15.3596 43.1572 15.3065C43.286 15.2534 43.3961 15.1633 43.4736 15.0476C43.5511 14.9318 43.5924 14.7957 43.5924 14.6564C43.5925 14.4708 43.5191 14.2928 43.3884 14.1611C43.2576 14.0293 43.0801 13.9547 42.8945 13.9533Z" fill="black"/>
<path d="M39.3168 18.6824C39.2479 18.6821 39.1797 18.6681 39.1163 18.6413C39.0528 18.6145 38.9953 18.5753 38.947 18.5261C38.8982 18.4777 38.8595 18.4201 38.833 18.3566C38.8066 18.2932 38.793 18.2251 38.793 18.1563C38.793 18.0876 38.8066 18.0195 38.833 17.956C38.8595 17.8926 38.8982 17.835 38.947 17.7865L41.6658 15.1407C41.7634 15.0437 41.8954 14.9893 42.033 14.9893C42.1706 14.9893 42.3026 15.0437 42.4002 15.1407C42.449 15.1891 42.4877 15.2467 42.5142 15.3102C42.5406 15.3737 42.5542 15.4417 42.5542 15.5105C42.5542 15.5793 42.5406 15.6473 42.5142 15.7108C42.4877 15.7743 42.449 15.8319 42.4002 15.8803L39.697 18.5261C39.6476 18.5766 39.5884 18.6165 39.523 18.6433C39.4576 18.6702 39.3875 18.6835 39.3168 18.6824Z" fill="black"/>
<path d="M37.545 18.7082C37.4134 18.7077 37.2868 18.6575 37.1908 18.5676L34.5345 16.104C34.433 16.0101 34.373 15.8797 34.3676 15.7415C34.3622 15.6033 34.412 15.4686 34.5059 15.3671C34.5998 15.2655 34.7302 15.2055 34.8685 15.2001C35.0067 15.1947 35.1413 15.2445 35.2429 15.3384L37.8991 17.802C37.95 17.8483 37.9913 17.9042 38.0204 17.9666C38.0496 18.0289 38.0661 18.0965 38.069 18.1652C38.0719 18.234 38.0612 18.3027 38.0374 18.3673C38.0136 18.4319 37.9772 18.4911 37.9304 18.5415C37.8812 18.5945 37.8216 18.6367 37.7552 18.6654C37.6888 18.6941 37.6172 18.7087 37.545 18.7082Z" fill="black"/>
<path d="M30.4015 19.1249C30.2656 19.1257 30.1347 19.0733 30.0369 18.979C29.9881 18.9306 29.9493 18.873 29.9229 18.8095C29.8964 18.7461 29.8828 18.678 29.8828 18.6092C29.8828 18.5405 29.8964 18.4724 29.9229 18.4089C29.9493 18.3455 29.9881 18.2879 30.0369 18.2394L32.7817 15.4061C32.8797 15.308 33.0128 15.2529 33.1515 15.2529C33.2902 15.2529 33.4232 15.308 33.5212 15.4061C33.6193 15.5042 33.6744 15.6372 33.6744 15.7759C33.6744 15.9146 33.6193 16.0476 33.5212 16.1457L30.7712 18.979C30.6721 19.0746 30.5392 19.127 30.4015 19.1249Z" fill="black"/>
</svg>
