<svg width="76" height="50" viewBox="0 0 76 50" fill="none" xmlns="http://www.w3.org/2000/svg">
<path fill-rule="evenodd" clip-rule="evenodd" d="M22.2656 4.72819C22.2656 4.07197 22.7973 3.54004 23.4531 3.54004H24.3438C24.9996 3.54004 25.5312 4.07197 25.5312 4.72819C25.5312 5.38441 24.9996 5.91634 24.3438 5.91634H23.4531C22.7973 5.91634 22.2656 5.38441 22.2656 4.72819ZM8.01562 11.5601C8.01562 10.9038 8.54727 10.3719 9.20312 10.3719H40.375C41.0309 10.3719 41.5625 10.9038 41.5625 11.5601C41.5625 12.2163 41.0309 12.7482 40.375 12.7482H9.20312C8.54727 12.7482 8.01562 12.2163 8.01562 11.5601ZM11.5781 18.689C11.5781 18.0327 12.1098 17.5008 12.7656 17.5008H13.6562C14.3121 17.5008 14.8438 18.0327 14.8438 18.689C14.8438 19.3452 14.3121 19.8771 13.6562 19.8771H12.7656C12.1098 19.8771 11.5781 19.3452 11.5781 18.689ZM16.3281 18.689C16.3281 18.0327 16.8598 17.5008 17.5156 17.5008H38C38.6559 17.5008 39.1875 18.0327 39.1875 18.689C39.1875 19.3452 38.6559 19.8771 38 19.8771H17.5156C16.8598 19.8771 16.3281 19.3452 16.3281 18.689ZM3.85938 25.2238C3.85938 24.5676 4.39104 24.0356 5.04688 24.0356H28.5C29.1559 24.0356 29.6875 24.5676 29.6875 25.2238C29.6875 25.88 29.1559 26.4119 28.5 26.4119H5.04688C4.39104 26.4119 3.85938 25.88 3.85938 25.2238Z" fill="#212121"/>
<path d="M7.71875 41.858C7.06289 41.858 6.53125 41.3261 6.53125 40.6698C6.53125 40.0136 7.06289 39.4817 7.71875 39.4817H14.8438V41.858H7.71875Z" fill="#212121"/>
<path fill-rule="evenodd" clip-rule="evenodd" d="M27.3125 4.72819C27.3125 4.07197 27.8441 3.54004 28.5 3.54004H47.7969C48.4527 3.54004 48.9844 4.07197 48.9844 4.72819V40.6698C48.9844 41.326 48.4527 41.8579 47.7969 41.8579H27.3125C26.6566 41.8579 26.125 41.326 26.125 40.6698C26.125 40.0135 26.6566 39.4816 27.3125 39.4816H46.6094V5.91634H28.5C27.8441 5.91634 27.3125 5.38441 27.3125 4.72819Z" fill="#212121"/>
<path d="M46.6094 15.7187C46.6094 15.0625 47.141 14.5305 47.7969 14.5305H58.8983C60.1677 14.5305 61.3415 15.2066 61.9792 16.3051L66.2928 23.7387H68.5781C70.5458 23.7387 72.1406 25.3346 72.1406 27.3031V38.2935C72.1406 40.2621 70.5458 41.858 68.5781 41.858C66.7808 41.858 65.7733 41.858 63.9766 41.858V39.4817H68.5781C69.2342 39.4817 69.7656 38.9498 69.7656 38.2935V27.3031C69.7656 26.6469 69.2342 26.115 68.5781 26.115H65.832L61.1111 27.9519C60.6997 28.1121 60.2621 28.1943 59.8203 28.1943H52.5469C51.891 28.1943 51.3594 27.6623 51.3594 27.0061C51.3594 26.3499 51.891 25.818 52.5469 25.818H59.8203C59.9676 25.818 60.113 25.7906 60.2502 25.7372L63.8857 24.3227L59.9254 17.4983C59.7128 17.1322 59.3215 16.9068 58.8983 16.9068H48.9844V39.4817H52.25V41.858H47.7969C47.141 41.858 46.6094 41.3261 46.6094 40.6698V15.7187Z" fill="#212121"/>
<path fill-rule="evenodd" clip-rule="evenodd" d="M20.7812 45.4223C23.4046 45.4223 25.5312 43.2945 25.5312 40.6697C25.5312 38.0449 23.4046 35.9171 20.7812 35.9171C18.1579 35.9171 16.0312 38.0449 16.0312 40.6697C16.0312 43.2945 18.1579 45.4223 20.7812 45.4223ZM20.7812 47.7986C24.7163 47.7986 27.9062 44.6069 27.9062 40.6697C27.9062 36.7325 24.7163 33.5408 20.7812 33.5408C16.8462 33.5408 13.6562 36.7325 13.6562 40.6697C13.6562 44.6069 16.8462 47.7986 20.7812 47.7986Z" fill="#212121"/>
<path fill-rule="evenodd" clip-rule="evenodd" d="M58.1875 45.4223C60.8107 45.4223 62.9375 43.2945 62.9375 40.6697C62.9375 38.0449 60.8107 35.9171 58.1875 35.9171C55.5641 35.9171 53.4375 38.0449 53.4375 40.6697C53.4375 43.2945 55.5641 45.4223 58.1875 45.4223ZM58.1875 47.7986C62.1223 47.7986 65.3125 44.6069 65.3125 40.6697C65.3125 36.7325 62.1223 33.5408 58.1875 33.5408C54.2525 33.5408 51.0625 36.7325 51.0625 40.6697C51.0625 44.6069 54.2525 47.7986 58.1875 47.7986Z" fill="#212121"/>
</svg>
