<svg width="42" height="48" viewBox="0 0 42 48" fill="none" xmlns="http://www.w3.org/2000/svg">
<path d="M41.8972 28.3207L38.1513 21.9724C38.064 21.8242 37.9275 21.7097 37.7646 21.6477L29.8558 18.6387C30.1019 17.8257 30.2348 16.9655 30.2348 16.0755C30.2348 11.0928 26.0921 7.03909 21 7.03909C15.9079 7.03909 11.7653 11.0928 11.7653 16.0755C11.7653 16.9656 11.8981 17.8257 12.1442 18.6387L4.23547 21.6477C4.07257 21.7097 3.93606 21.8242 3.8487 21.9724L0.102865 28.3207C-0.00916167 28.5106 -0.0308566 28.7389 0.0435398 28.9458C0.11784 29.1526 0.280841 29.3174 0.489631 29.3969L3.7457 30.6357V40.9759C3.7457 41.2858 3.94019 41.564 4.23547 41.6763L20.7216 47.9489C20.8112 47.983 20.9056 48 20.9999 48C21.0943 48 21.1887 47.983 21.2782 47.9489L37.7644 41.6763C38.0597 41.564 38.2542 41.2858 38.2542 40.9759V30.6357L41.5102 29.3969C41.7191 29.3174 41.882 29.1526 41.9563 28.9458C42.0309 28.7389 42.0092 28.5107 41.8972 28.3207ZM21.0001 8.54203C25.2453 8.54203 28.699 11.9216 28.699 16.0755C28.699 20.2294 25.2452 23.609 21.0001 23.609C16.755 23.609 13.3013 20.2294 13.3013 16.0755C13.3013 11.9216 16.7549 8.54203 21.0001 8.54203ZM21.0001 25.1119C24.6593 25.1119 27.8282 23.0186 29.3219 19.9915L35.3825 22.3423L21.0001 27.8144L6.6176 22.3423L12.6783 19.9915C14.172 23.0186 17.3409 25.1119 21.0001 25.1119ZM1.8808 28.3135L4.84955 23.2821L19.8873 29.0036L16.9186 34.0352L1.8808 28.3135ZM5.28182 31.2201L16.9761 35.6695C17.3293 35.8038 17.7299 35.6661 17.9194 35.3449L20.2322 31.4253V46.1501L5.28182 40.4618V31.2201ZM36.7184 40.4618L21.7681 46.1501V31.4253L24.0808 35.345C24.2704 35.6662 24.671 35.804 25.0242 35.6696L36.7184 31.2202V40.4618ZM25.0817 34.0352L22.1128 29.0036L37.1507 23.2821L40.1194 28.3135L25.0817 34.0352ZM19.0893 20.9568C19.621 20.9568 20.1213 20.7538 20.4981 20.3851L26.4847 14.5271C27.2626 13.7659 27.2626 12.5272 26.4846 11.7658C26.1078 11.3971 25.6067 11.1941 25.0739 11.1941C24.541 11.1941 24.0399 11.3971 23.663 11.7658L19.2563 16.078L18.0801 14.6299C17.6998 14.1617 17.1308 13.8931 16.5192 13.8931C16.0712 13.8931 15.6311 14.0436 15.2797 14.3168C14.4196 14.9861 14.2762 16.2153 14.9599 17.0568L17.4657 20.1423C17.8402 20.653 18.4452 20.9569 19.0893 20.9568ZM16.2354 15.4932C16.3387 15.4129 16.4467 15.396 16.5191 15.396C16.6598 15.396 16.7904 15.4576 16.8776 15.5649L18.5892 17.6725C18.7254 17.8402 18.9282 17.9431 19.1467 17.9553C19.3647 17.9672 19.5787 17.8878 19.7335 17.7364L24.7489 12.8286C24.8356 12.7437 24.951 12.697 25.0738 12.697C25.1966 12.697 25.3118 12.7438 25.3984 12.8285C25.5776 13.0039 25.5777 13.2891 25.3985 13.4644L19.412 19.3224C19.3008 19.4311 19.1751 19.4539 19.0891 19.4539C18.9354 19.4539 18.7971 19.3835 18.7095 19.2607C18.7004 19.2479 18.6909 19.2355 18.6811 19.2234L16.1622 16.1217C16.0054 15.9287 16.0383 15.6467 16.2354 15.4932ZM20.2322 4.27106V0.751468C20.2322 0.33647 20.5759 0 21.0001 0C21.4242 0 21.7681 0.33647 21.7681 0.751468V4.27106C21.7681 4.68606 21.4242 5.02253 21.0001 5.02253C20.5759 5.02253 20.2322 4.68606 20.2322 4.27106ZM12.4777 3.0813C12.2657 2.72191 12.3916 2.26229 12.7589 2.05479C13.1261 1.84739 13.5959 1.97044 13.8079 2.32983L15.6063 5.37788C15.8184 5.73727 15.6925 6.19688 15.3253 6.40438C15.2043 6.47267 15.0722 6.50517 14.9419 6.50517C14.6765 6.50517 14.4185 6.37038 14.2761 6.12935L12.4777 3.0813ZM6.67164 7.86646C6.8837 7.50697 7.3534 7.38383 7.72068 7.59142L10.8356 9.35117C11.2029 9.55867 11.3288 10.0183 11.1167 10.3777C10.9745 10.6187 10.7163 10.7535 10.4509 10.7535C10.3206 10.7535 10.1886 10.721 10.0677 10.6527L6.95272 8.89296C6.58544 8.68546 6.45959 8.22585 6.67164 7.86646ZM4.36967 15.8777C4.36967 15.4627 4.71343 15.1262 5.13764 15.1262H8.73439C9.1586 15.1262 9.50236 15.4627 9.50236 15.8777C9.50236 16.2927 9.1586 16.6291 8.73439 16.6291H5.13764C4.71343 16.6291 4.36967 16.2928 4.36967 15.8777ZM26.3398 5.57561L28.1381 2.52756C28.3502 2.16808 28.8199 2.04484 29.1872 2.25252C29.5545 2.46002 29.6804 2.91964 29.4684 3.27903L27.6699 6.32708C27.5276 6.56811 27.2695 6.7029 27.0041 6.7029C26.8738 6.7029 26.7417 6.6704 26.6207 6.60211C26.2536 6.39471 26.1277 5.93509 26.3398 5.57561ZM30.6815 10.7203C30.4694 10.3609 30.5952 9.90124 30.9625 9.69375L34.0775 7.934C34.4448 7.72659 34.9145 7.84974 35.1265 8.20903C35.3386 8.56842 35.2127 9.02804 34.8454 9.23554L31.7305 10.9953C31.6095 11.0636 31.4775 11.0961 31.3473 11.0961C31.0818 11.0961 30.8236 10.9613 30.6815 10.7203ZM32.8616 15.5218H36.4584C36.8826 15.5218 37.2263 15.8582 37.2263 16.2732C37.2263 16.6882 36.8826 17.0247 36.4584 17.0247H32.8616C32.4374 17.0247 32.0936 16.6882 32.0936 16.2732C32.0936 15.8582 32.4375 15.5218 32.8616 15.5218Z" fill="black"/>
</svg>
