<svg width="44" height="41" viewBox="0 0 44 41" fill="none" xmlns="http://www.w3.org/2000/svg">
<path d="M40.7805 8.2H30.5752C31.2518 7.34207 31.6585 6.27915 31.6585 5.125C31.6585 2.29907 29.2514 0 26.2927 0C24.5364 0 22.9798 0.81385 22 2.06332C21.0207 0.81385 19.4636 0 17.7073 0C14.7486 0 12.3415 2.29907 12.3415 5.125C12.3415 6.27915 12.7482 7.34207 13.4248 8.2H3.21951C1.44395 8.2 0 9.57914 0 11.275V15.375C0 16.7111 0.897707 17.8473 2.14634 18.2706V37.925C2.14634 39.6209 3.59029 41 5.36585 41H38.6341C40.4097 41 41.8537 39.6209 41.8537 37.925V18.2706C43.1023 17.8473 44 16.7111 44 15.375V11.275C44 9.57914 42.556 8.2 40.7805 8.2ZM18.7805 16.4V10.25H25.2195V16.4H18.7805ZM25.2195 18.45V38.95H18.7805V18.45H25.2195ZM26.2927 2.05C28.0682 2.05 29.5122 3.42914 29.5122 5.125C29.5122 6.82086 28.0682 8.2 26.2927 8.2H23.0732V5.125C23.0732 3.42914 24.5171 2.05 26.2927 2.05ZM14.4878 5.125C14.4878 3.42914 15.9318 2.05 17.7073 2.05C19.4829 2.05 20.9268 3.42914 20.9268 5.125V8.2H17.7073C15.9318 8.2 14.4878 6.82086 14.4878 5.125ZM2.14634 11.275C2.14634 10.7097 2.62766 10.25 3.21951 10.25H16.6341V16.4H3.21951C2.62766 16.4 2.14634 15.9403 2.14634 15.375V11.275ZM4.29268 37.925V18.45H16.6341V38.95H5.36585C4.774 38.95 4.29268 38.4903 4.29268 37.925ZM38.6341 38.95H27.3659V18.45H39.7073V37.925C39.7073 38.4903 39.226 38.95 38.6341 38.95ZM41.8537 15.375C41.8537 15.9403 41.3723 16.4 40.7805 16.4H27.3659V10.25H40.7805C41.3723 10.25 41.8537 10.7097 41.8537 11.275V15.375Z" fill="black"/>
</svg>
