<svg width="51" height="51" viewBox="0 0 51 51" fill="none" xmlns="http://www.w3.org/2000/svg">
<g clip-path="url(#clip0_439_440)">
<path d="M21.4297 7.30001C24.8981 6.24504 28.5786 6.09473 32.1214 6.86335C35.6643 7.63197 38.9517 9.29399 41.671 11.6914C44.3904 14.0888 46.4514 17.1419 47.658 20.5605C48.8647 23.979 49.1769 27.6494 48.565 31.2226L48.0313 33.0979" stroke="#212121" stroke-width="2" stroke-linecap="round" stroke-linejoin="round"/>
<path d="M42.2292 42.9355C34.6533 42.4959 25.9783 40.0099 19.6193 37.8234C15.4455 36.4052 11.3539 34.756 7.36328 32.8833" stroke="#212121" stroke-width="2" stroke-linecap="round" stroke-linejoin="round"/>
<path d="M17.0215 21.4763C19.1645 22.3954 21.574 23.3277 24.2829 24.2591C37.1992 28.7003 44.547 28.9624 48.6675 28.3405" stroke="#212121" stroke-width="2" stroke-linecap="round" stroke-linejoin="round"/>
<path d="M47.7886 21.833C44.4771 24.0852 40.9352 25.9783 37.2227 27.4801" stroke="#212121" stroke-width="2" stroke-linecap="round" stroke-linejoin="round"/>
<path d="M23.8792 39.5229C19.9512 40.5789 15.9618 41.3911 11.9336 41.9548" stroke="#212121" stroke-width="2" stroke-linecap="round" stroke-linejoin="round"/>
<path d="M34.289 42.2573C28.7099 43.9777 23.0169 45.304 17.252 46.2264" stroke="#212121" stroke-width="2" stroke-linecap="round" stroke-linejoin="round"/>
<path d="M24.873 24.3287C35.3194 21.1358 41.2278 17.8617 44.6342 15.2029" stroke="#212121" stroke-width="2" stroke-linecap="round" stroke-linejoin="round"/>
<path d="M34.4892 20.6477C32.8738 19.6066 31.2156 18.4706 29.5429 17.2522C28.1034 16.2036 26.7254 15.1465 25.4219 14.0957" stroke="#212121" stroke-width="2" stroke-linecap="round" stroke-linejoin="round"/>
<path d="M26.4258 23.8088L25.32 23.0489C20.8682 19.895 16.6966 16.3632 12.8516 12.4927M27.4471 6.4458C29.2219 7.98785 31.3215 9.67474 33.7654 11.455C36.3945 13.3833 39.1256 15.1685 41.9468 16.8028" stroke="#212121" stroke-width="2" stroke-linecap="round" stroke-linejoin="round"/>
<path d="M11.5605 13.7053C13.185 11.8349 15.1239 10.2628 17.2897 9.06006" stroke="#212121" stroke-width="2" stroke-linecap="round" stroke-linejoin="round"/>
<path d="M46.555 37.2787C45.2743 39.7864 43.508 42.0146 41.3589 43.8338C39.2097 45.6531 36.7204 47.0271 34.0357 47.8761C31.351 48.7251 28.5243 49.0321 25.7199 48.7793C22.9155 48.5265 20.1892 47.719 17.6996 46.4036C15.2099 45.0882 13.0065 43.2912 11.2173 41.117C9.42802 38.9428 8.08869 36.4347 7.27705 33.7384C6.46541 31.0421 6.19765 28.2115 6.48934 25.4108C6.78102 22.6102 7.62632 19.8955 8.97614 17.4243" stroke="#212121" stroke-width="2" stroke-linecap="round" stroke-linejoin="round"/>
<path d="M6.74609 24.428C13.9748 28.3475 21.6371 31.4079 29.5768 33.5471C35.1883 35.176 40.9624 36.1808 46.7942 36.5431" stroke="#212121" stroke-width="2" stroke-linecap="round" stroke-linejoin="round"/>
<path d="M40.3828 45.1648L45.1449 49.9269" stroke="#212121" stroke-width="2" stroke-linecap="round" stroke-linejoin="round"/>
<path d="M6.9082 14.876L13.4001 21.3679" stroke="#212121" stroke-width="2" stroke-linecap="round" stroke-linejoin="round"/>
<path d="M45.5859 39.7417L49.7998 43.9556" stroke="#212121" stroke-width="2" stroke-linecap="round" stroke-linejoin="round"/>
<path d="M15.4062 6.90625L22.1096 13.6096" stroke="#212121" stroke-width="2" stroke-linecap="round" stroke-linejoin="round"/>
<path d="M4.25 15.8611C6.01041 15.8611 7.4375 14.434 7.4375 12.6736C7.4375 10.9132 6.01041 9.48608 4.25 9.48608C2.48959 9.48608 1.0625 10.9132 1.0625 12.6736C1.0625 14.434 2.48959 15.8611 4.25 15.8611Z" stroke="#212121" stroke-width="2" stroke-linecap="round" stroke-linejoin="round"/>
<path d="M12.75 7.4375C14.5104 7.4375 15.9375 6.01041 15.9375 4.25C15.9375 2.48959 14.5104 1.0625 12.75 1.0625C10.9896 1.0625 9.5625 2.48959 9.5625 4.25C9.5625 6.01041 10.9896 7.4375 12.75 7.4375Z" stroke="#212121" stroke-width="2" stroke-linecap="round" stroke-linejoin="round"/>
</g>
<defs>
<clipPath id="clip0_439_440">
<rect width="51" height="51" fill="white"/>
</clipPath>
</defs>
</svg>
