<svg width="39" height="45" viewBox="0 0 39 45" fill="none" xmlns="http://www.w3.org/2000/svg">
<g clip-path="url(#clip0_609_314)">
<path d="M17.3886 0.210698C14.708 0.685307 12.5195 1.80152 10.7089 3.62965C9.05664 5.28199 8.0459 7.24195 7.44825 9.89625C7.26367 10.7224 7.2461 11.0037 7.21973 15.4246C7.18457 19.4412 7.20215 20.2058 7.3252 20.9617C7.62403 22.7634 8.3711 24.5212 9.46094 25.9714C9.76856 26.3845 10.0146 26.7449 9.99707 26.7537C9.9795 26.7712 9.36426 27.0876 8.62598 27.4568C7.89649 27.8259 7.05274 28.2917 6.7627 28.4851C6.05078 28.9597 5.18067 29.9265 4.79395 30.6472C4.24024 31.7107 4.09961 32.3171 4.05567 33.8025L4.01172 35.1296L4.24903 35.3142C4.56543 35.5603 4.77637 35.5603 5.04004 35.2878C5.25098 35.0857 5.25977 35.0242 5.25977 34.075C5.25977 32.9324 5.45313 31.9919 5.84864 31.2625C6.13867 30.7263 6.90332 29.8826 7.4043 29.531C7.78223 29.2761 9.92676 28.1248 10.0322 28.1248C10.0673 28.1248 10.0937 28.9509 10.0937 29.9617V31.7986L9.70703 31.9919C9.25 32.2117 8.73145 32.7566 8.53809 33.2136C8.36231 33.6091 8.35352 34.3914 8.50293 34.8396C8.66993 35.3318 9.32032 35.991 9.8125 36.1843C10.331 36.3777 10.999 36.3777 11.5175 36.1843C12.0097 35.991 12.6601 35.3318 12.8183 34.8396C12.9853 34.3562 12.9677 33.6794 12.7919 33.2048C12.6162 32.7478 12.0097 32.1414 11.5351 31.9392L11.2363 31.8162V29.7156C11.2363 28.1423 11.2626 27.5974 11.3505 27.5271C11.4736 27.4216 13.539 26.5251 13.5654 26.5603C13.5742 26.5779 13.9433 28.6785 14.3916 31.2449C14.8398 33.8025 15.2617 35.991 15.332 36.1052C15.5166 36.3953 16.0966 36.3777 16.2988 36.0789C16.4306 35.8767 16.4218 35.78 16.246 34.7166C16.1406 34.0837 16.0703 33.5476 16.0878 33.53C16.1054 33.5037 16.4746 33.53 16.914 33.5828C17.9248 33.697 21.0712 33.697 22.082 33.5828C22.5214 33.53 22.8906 33.5037 22.9082 33.53C22.9257 33.5476 22.8554 34.0837 22.75 34.7166C22.5742 35.78 22.5654 35.8767 22.6972 36.0789C22.8994 36.3777 23.4794 36.3953 23.664 36.1052C23.7343 35.991 24.1562 33.8289 24.6044 31.2449C25.0527 28.6785 25.4218 26.5779 25.4306 26.5603C25.4482 26.5427 26.0459 26.7976 26.7578 27.114C27.4785 27.4392 28.1728 27.7468 28.3134 27.7996L28.5507 27.8962V29.6189V31.3416L28.1728 31.4382C27.6982 31.5701 27.1269 31.9832 26.7929 32.449C26.371 33.0291 26.2656 33.53 26.2656 34.9539C26.2656 36.0964 26.2832 36.2283 26.4414 36.3865C26.6699 36.615 27.0918 36.615 27.3203 36.3865C27.4785 36.2283 27.496 36.0964 27.496 35.0417C27.496 33.6794 27.5664 33.3542 27.9531 32.9851C28.3222 32.6335 28.621 32.5193 29.2011 32.5193C29.8427 32.5193 30.3701 32.8093 30.6337 33.3103C30.8183 33.6531 30.8359 33.8025 30.8359 34.8923C30.8359 35.9822 30.8535 36.1228 31.0205 36.3337C31.2402 36.615 31.6972 36.6501 31.9257 36.3953C32.0664 36.2459 32.0751 36.0525 32.0488 34.7429C32.0224 33.3455 32.0048 33.24 31.7851 32.8269C31.4687 32.2205 30.9589 31.7634 30.3437 31.5085L29.8251 31.2976L29.7988 29.9353C29.79 29.1794 29.8076 28.5642 29.8427 28.5642C29.8779 28.5642 30.2822 28.7751 30.7392 29.0212C31.7148 29.5574 32.7519 30.5242 33.1474 31.2625C33.5429 32.0007 33.7363 32.9324 33.7363 34.075C33.7363 35.0242 33.7451 35.0857 33.956 35.2878C34.2197 35.5603 34.4306 35.5603 34.747 35.3142L34.9844 35.1296L34.9405 33.8025C34.8965 32.3171 34.7558 31.7107 34.2022 30.6472C33.8155 29.9265 32.9454 28.9597 32.2334 28.4851C31.9433 28.2917 31.0996 27.8259 30.3701 27.4568C29.6318 27.0876 29.0166 26.7712 28.999 26.7537C28.9814 26.7449 29.2275 26.3845 29.5351 25.9714C30.5283 24.6531 31.2314 23.115 31.5918 21.4451C31.7412 20.7683 31.7587 20.2585 31.7587 15.7761C31.7587 10.9597 31.7587 10.8367 31.5566 9.93141C30.9589 7.23316 29.9218 5.25563 28.2168 3.55933C26.5468 1.90699 24.5957 0.861088 22.1347 0.307377C21.247 0.105229 18.3115 0.0524941 17.3886 0.210698ZM21.871 1.52906C25.8525 2.32008 28.9639 5.18531 30.08 9.08766C30.5546 10.74 30.6074 11.4607 30.6162 15.864C30.6162 20.1794 30.581 20.6013 30.1591 22.0603C29.7724 23.405 28.7089 25.2683 27.9267 25.989L27.7158 26.1824L26.5732 25.6814L25.4306 25.1716L25.0966 24.3103C24.9121 23.8357 24.7802 23.4402 24.789 23.4314C25.0264 23.282 26.0459 22.4207 26.3183 22.1306C27.4785 20.9001 28.2168 19.3445 28.4541 17.6306C28.5068 17.2615 28.5507 15.741 28.5507 14.2732V11.5925L28.331 11.3728C28.1289 11.1707 28.0673 11.1531 27.7334 11.2234C27.5312 11.2585 26.9072 11.2937 26.3535 11.2849C25.4921 11.2849 25.2373 11.2498 24.6396 11.0388C22.7851 10.406 21.3085 9.08766 20.3418 7.21559C20.0341 6.60914 19.8759 6.40699 19.7177 6.36305C19.2519 6.24879 19.0849 6.38063 18.6542 7.21559C17.6875 9.08766 16.2109 10.406 14.3564 11.0388C13.7587 11.2498 13.5039 11.2849 12.6425 11.2849C12.0888 11.2937 11.4648 11.2585 11.2626 11.2234C10.9287 11.1531 10.8671 11.1707 10.665 11.3728L10.4453 11.5925V14.2732C10.4453 15.741 10.4892 17.2615 10.5419 17.6306C10.7792 19.3445 11.5175 20.9001 12.6777 22.1306C12.9501 22.4207 13.9785 23.2908 14.207 23.4314C14.2421 23.449 13.6093 25.0837 13.5302 25.1628C13.4863 25.2068 12.9677 25.4529 12.3701 25.7166L11.2802 26.1824L10.8759 25.7517C9.93555 24.7585 9.11817 23.2029 8.72266 21.6472C8.39746 20.3728 8.30957 18.5974 8.36231 14.8093C8.39746 12.0496 8.43262 11.3992 8.59082 10.5115C9.03028 8.05055 10.0234 6.04664 11.5878 4.48219C14.207 1.86305 18.0302 0.773198 21.871 1.52906ZM19.8935 8.88551C20.3945 9.64137 21.7919 10.9509 22.6445 11.4607C23.04 11.698 23.7695 12.0232 24.2617 12.199C25.0527 12.4714 25.3076 12.5154 26.248 12.5505L27.3203 12.5945V14.8005C27.3203 17.1648 27.2587 17.78 26.916 18.8083C26.4238 20.2849 25.4921 21.4275 23.8222 22.5876C21.3876 24.2839 19.7177 24.741 18.0478 24.1697C16.7646 23.7302 14.5322 22.28 13.5742 21.2605C12.6162 20.2498 12.0009 18.9841 11.7724 17.5779C11.7197 17.2615 11.6757 16.0134 11.6757 14.8005V12.5945L12.7568 12.5505C13.6884 12.5154 13.9433 12.4714 14.7343 12.199C15.2265 12.0232 15.956 11.698 16.3515 11.4607C17.2041 10.9509 18.6015 9.64137 19.1025 8.88551C19.2959 8.59547 19.4716 8.35816 19.498 8.35816C19.5244 8.35816 19.7001 8.59547 19.8935 8.88551ZM16.2636 24.7322C16.5712 24.8992 17.1953 25.1628 17.6523 25.321C18.3906 25.5759 18.6015 25.6111 19.4541 25.6111C20.7636 25.6199 21.748 25.3035 23.33 24.3806C23.5322 24.2576 23.7255 24.196 23.7519 24.24C23.7783 24.2839 23.9189 24.6443 24.0595 25.031L24.3232 25.7429L23.7607 28.9685C23.4443 30.7439 23.1806 32.2029 23.1718 32.2205C23.0664 32.3084 20.8867 32.449 19.498 32.449C18.1093 32.449 15.9296 32.3084 15.8242 32.2205C15.8154 32.2029 15.5517 30.7439 15.2353 28.9685L14.6728 25.7341L14.9365 25.031C15.2705 24.1257 15.2617 24.1345 15.5078 24.2927C15.622 24.3718 15.9648 24.5652 16.2636 24.7322ZM11.289 33.1873C11.5439 33.3542 11.7109 33.7058 11.7109 34.0574C11.7109 34.6726 11.2802 35.0945 10.665 35.0945C10.0498 35.0945 9.61914 34.6726 9.61914 34.0574C9.61914 33.2136 10.5683 32.7214 11.289 33.1873Z" fill="black"/>
<path d="M15.5483 14.2472C14.4936 14.669 14.0893 16.4356 15.0561 16.4356C15.434 16.4356 15.601 16.2862 15.7241 15.8468C15.7944 15.5655 15.8735 15.4601 16.0317 15.4161C16.3569 15.337 16.5414 15.4073 16.6645 15.671C16.726 15.8028 16.8315 16.0138 16.893 16.1456C16.9809 16.339 17.0776 16.4005 17.3061 16.4181C17.7895 16.462 17.9653 16.2687 17.9565 15.7413C17.9477 14.8624 17.1743 14.1505 16.2514 14.1593C15.9877 14.1593 15.6713 14.2032 15.5483 14.2472Z" fill="black"/>
<path d="M21.9502 14.3262C21.379 14.625 20.9922 15.2578 20.9922 15.8818C20.9922 16.418 21.8799 16.6465 22.0997 16.1719C22.4688 15.3633 22.5303 15.3105 22.9698 15.416C23.128 15.46 23.2071 15.5654 23.2774 15.8467C23.4004 16.2861 23.5674 16.4355 23.9454 16.4355C24.9297 16.4355 24.4991 14.6514 23.4268 14.2471C23.0401 14.0977 22.3018 14.1416 21.9502 14.3262Z" fill="black"/>
<path d="M16.8262 19.0811C16.668 19.2041 16.5977 19.3447 16.5977 19.5205C16.5977 19.9072 17.3887 20.6631 18.1534 21.0322C18.6807 21.2783 18.8389 21.3135 19.4981 21.3135C20.1573 21.3135 20.3155 21.2783 20.8428 21.0322C21.6075 20.6631 22.3985 19.9072 22.3985 19.5205C22.3985 19.2393 22.0557 18.8965 21.7745 18.8965C21.6866 18.8965 21.3877 19.0986 21.1153 19.3447C19.9639 20.3906 19.0323 20.3906 17.8809 19.3447C17.336 18.8525 17.169 18.8086 16.8262 19.0811Z" fill="black"/>
<path d="M14.3496 36.5711C14.0859 36.6678 14.0596 36.7205 13.6025 38.0565L13.1982 39.243L11.8359 39.2869C10.333 39.3397 10.1836 39.3836 10.1836 39.8494C10.1836 40.2186 10.2363 40.2713 11.3789 41.115L12.3633 41.8358L11.9766 43.0311C11.5459 44.367 11.5371 44.4373 11.7305 44.7186C11.9766 45.0789 12.3721 44.9822 13.2422 44.3582C13.6641 44.0594 14.1299 43.7254 14.2793 43.6199L14.5518 43.4266L15.5889 44.1736C16.6963 44.9647 17.0391 45.0789 17.3291 44.7537C17.54 44.5164 17.5225 44.3143 17.1182 43.0486C16.9248 42.4246 16.7754 41.8797 16.793 41.8358C16.8105 41.8006 17.2852 41.4227 17.8564 41.0008C18.9902 40.1658 19.1221 39.9637 18.8232 39.5682C18.6475 39.3309 18.6475 39.3309 17.2764 39.3045L15.9053 39.2781L15.501 38.0652C15.0352 36.6678 14.8242 36.3865 14.3496 36.5711ZM14.7715 39.7264C15.0088 40.3943 15.1846 40.5174 15.9316 40.5174H16.4502L15.9668 40.869C15.6943 41.0535 15.457 41.2996 15.4307 41.4051C15.4043 41.5106 15.457 41.8358 15.5449 42.1258C15.6416 42.4246 15.7031 42.6707 15.6943 42.6883C15.6768 42.6971 15.4658 42.5652 15.2197 42.3895C14.9736 42.2225 14.666 42.0818 14.543 42.0818C14.4199 42.0818 14.1211 42.2225 13.875 42.3983C13.6377 42.574 13.418 42.7147 13.4004 42.7147C13.3828 42.7147 13.4443 42.4686 13.541 42.1697C13.6289 41.8621 13.6816 41.5281 13.6553 41.4227C13.6289 41.3084 13.4092 41.0711 13.1631 40.8953L12.7236 40.5613L13.2949 40.5086C13.998 40.4471 14.1475 40.324 14.3584 39.6385C14.4463 39.3484 14.5342 39.1199 14.543 39.1375C14.5605 39.1463 14.6572 39.4188 14.7715 39.7264Z" fill="black"/>
<path d="M24.2458 36.5801C23.9557 36.6856 23.9557 36.6944 23.4899 38.0742L23.0944 39.2783L21.7233 39.3047C20.3522 39.3311 20.3522 39.3311 20.1764 39.5684C19.8776 39.9639 20.0094 40.166 21.1432 41.001C21.7145 41.4229 22.1891 41.8008 22.2067 41.836C22.2243 41.8799 22.0749 42.4248 21.8815 43.0488C21.4772 44.3233 21.4508 44.5606 21.6794 44.7627C22.0046 45.0615 22.3122 44.9561 23.4108 44.1738L24.4479 43.4268L24.7204 43.6201C24.8698 43.7256 25.3356 44.0596 25.7575 44.3584C26.6276 44.9824 27.0231 45.0791 27.2692 44.7188C27.4626 44.4375 27.4538 44.3672 27.0231 43.0313L26.6364 41.836L27.6208 41.124C28.7458 40.2979 28.8161 40.2276 28.8161 39.8496C28.8161 39.3838 28.6667 39.3399 27.1637 39.2871L25.8014 39.2432L25.3971 38.0479C25.1774 37.3887 24.9401 36.791 24.8786 36.7119C24.7292 36.5361 24.5006 36.4834 24.2458 36.5801ZM24.9665 40.3067C25.0631 40.4033 25.3268 40.4736 25.7135 40.5088L26.3112 40.5615L25.8454 40.8955C25.5993 41.0801 25.362 41.3262 25.3356 41.4229C25.3092 41.5283 25.3708 41.8623 25.4587 42.1699C25.5641 42.4951 25.5905 42.6885 25.529 42.6533C25.4762 42.627 25.2653 42.4776 25.0631 42.3369C24.5885 42.0029 24.3249 42.0117 23.7799 42.3897C23.5339 42.5654 23.3229 42.6973 23.3053 42.6885C23.2965 42.6709 23.3669 42.416 23.4548 42.1172C23.6657 41.4404 23.613 41.2735 23.0505 40.8692L22.6198 40.5615L23.2087 40.5088C23.5339 40.4824 23.859 40.4121 23.9294 40.3506C23.9997 40.2891 24.1491 39.9727 24.2546 39.6563L24.4479 39.0674L24.6325 39.6123C24.738 39.9111 24.8874 40.2276 24.9665 40.3067Z" fill="black"/>
<path d="M4.16138 36.7736C4.08227 36.8879 3.85376 37.4855 3.64282 38.1096L3.26489 39.2433L1.88501 39.2873C0.645748 39.3224 0.487545 39.3488 0.373287 39.4982C0.179927 39.7707 0.223873 40.1047 0.487545 40.3596C0.62817 40.4826 1.12036 40.8605 1.58618 41.2033C2.07837 41.5637 2.42993 41.8801 2.40356 41.9416C2.06079 42.9084 1.66528 44.3586 1.70044 44.4816C1.78833 44.7541 2.00806 44.9123 2.28052 44.9123C2.47388 44.9123 2.84302 44.7013 3.59888 44.1652L4.64477 43.4181L5.68188 44.1652C6.77173 44.9562 7.10571 45.0705 7.39575 44.7541C7.61548 44.508 7.58032 44.2179 7.18481 42.9611C6.99145 42.3371 6.84204 41.8097 6.85962 41.801C6.86841 41.7834 7.33423 41.4494 7.87915 41.0539C9.07446 40.1662 9.23267 39.9465 8.89868 39.507C8.78442 39.3488 8.63501 39.3312 7.38696 39.2873L6.00708 39.2433L5.5852 38.0129C5.35669 37.3361 5.10181 36.7297 5.0227 36.6681C4.76782 36.4836 4.31079 36.5363 4.16138 36.7736ZM4.8645 39.7355C5.00513 40.2013 5.07544 40.298 5.32153 40.3947C5.47974 40.465 5.80493 40.5178 6.05102 40.5178H6.49927L6.03345 40.8957C5.49731 41.3263 5.43579 41.5373 5.64673 42.1613C5.72583 42.3898 5.78735 42.6096 5.78735 42.6535C5.78735 42.6974 5.57642 42.5832 5.33032 42.3986C5.07544 42.214 4.76782 42.0734 4.63599 42.0734C4.50415 42.0734 4.20532 42.214 3.95044 42.3986C3.70435 42.5832 3.5022 42.6974 3.5022 42.6447C3.5022 42.6008 3.56372 42.3722 3.63403 42.1349C3.84497 41.4406 3.8186 41.3439 3.28247 40.9308L2.79907 40.5617L3.37036 40.509C4.05591 40.4474 4.24048 40.3068 4.44263 39.6652C4.52173 39.4103 4.61841 39.1994 4.64477 39.1994C4.67993 39.1994 4.77661 39.4455 4.8645 39.7355Z" fill="black"/>
<path d="M33.9744 36.6678C33.8953 36.7294 33.6404 37.3358 33.4119 38.0126L32.99 39.243L31.6101 39.287C30.3621 39.3309 30.2127 39.3485 30.0984 39.5067C29.7644 39.9462 29.9226 40.1659 31.1179 41.0536C31.6628 41.4491 32.1287 41.7831 32.1375 41.8006C32.155 41.8094 32.0056 42.3456 31.8035 42.996C31.3904 44.3055 31.364 44.4901 31.5837 44.7362C31.8914 45.079 32.2166 44.9735 33.3328 44.1649L34.3611 43.4178L35.407 44.1649C36.1628 44.7098 36.5232 44.912 36.7078 44.912C36.989 44.912 37.2087 44.7538 37.2966 44.4813C37.3318 44.3583 36.9363 42.9081 36.5935 41.9413C36.5671 41.8797 36.9187 41.5633 37.4109 41.203C37.8767 40.8602 38.3689 40.4823 38.5095 40.3592C38.7732 40.1044 38.8171 39.7704 38.6238 39.4979C38.5095 39.3485 38.3513 39.3221 37.1033 39.287L35.7146 39.243L35.3191 38.0477C35.0994 37.3885 34.8709 36.7821 34.8005 36.703C34.6599 36.536 34.1853 36.5184 33.9744 36.6678ZM34.5544 39.6649C34.7566 40.3065 34.9412 40.4471 35.6267 40.5087L36.198 40.5614L35.7146 40.9305C35.1785 41.3436 35.1521 41.4403 35.363 42.1346C35.4334 42.3719 35.4949 42.6005 35.4949 42.6444C35.4949 42.6971 35.2927 42.5829 35.0466 42.3983C34.7918 42.2137 34.4929 42.0731 34.3611 42.0731C34.2293 42.0731 33.9216 42.2137 33.6668 42.3983C33.4207 42.5829 33.2097 42.6971 33.2097 42.6532C33.2097 42.6092 33.2712 42.3895 33.3503 42.161C33.5613 41.537 33.4998 41.326 32.9636 40.8954L32.4978 40.5174H32.9461C33.1921 40.5174 33.5173 40.4647 33.6755 40.3944C33.9216 40.2977 33.9919 40.201 34.1326 39.7352C34.2205 39.4452 34.3171 39.1991 34.3523 39.1991C34.3787 39.1991 34.4753 39.41 34.5544 39.6649Z" fill="black"/>
</g>
<defs>
<clipPath id="clip0_609_314">
<rect width="39" height="45" fill="white"/>
</clipPath>
</defs>
</svg>
