<svg width="58" height="45" viewBox="0 0 58 45" fill="none" xmlns="http://www.w3.org/2000/svg">
<path fill-rule="evenodd" clip-rule="evenodd" d="M14.9237 0C7.74136 0 2 6.17721 2 13.6898C2 17.4578 3.51462 21.2929 5.70466 24.8825C7.89982 28.4806 10.8139 31.8973 13.707 34.845C16.6029 37.7955 19.4958 40.2942 21.6632 42.0546C22.7476 42.9352 23.6519 43.6323 24.2863 44.11C24.6034 44.349 24.8533 44.5331 25.0245 44.6579C25.1102 44.7204 25.1762 44.7681 25.2211 44.8004L25.2724 44.8373L25.2861 44.8469L25.2897 44.8495C25.29 44.8496 25.2913 44.8506 25.7606 44.1877L25.2913 44.8506C25.5724 45.0498 25.9488 45.0498 26.2298 44.8506L25.7606 44.1877C26.2298 44.8506 26.2297 44.8508 26.2298 44.8506L26.2315 44.8495L26.235 44.8469L26.2487 44.8373L26.3002 44.8004C26.345 44.7681 26.4109 44.7204 26.4966 44.6579C26.6678 44.5331 26.9177 44.349 27.2348 44.11C27.8692 43.6323 28.7735 42.9352 29.8579 42.0546C32.0254 40.2942 34.9184 37.7955 37.8142 34.845C38.2444 34.4067 38.6749 33.9581 39.1035 33.5001C38.6401 33.2011 38.2155 32.8584 37.8334 32.48C37.4424 32.8964 37.0493 33.3054 36.6557 33.7064C33.8143 36.6014 30.9701 39.0587 28.8346 40.7929C27.7676 41.6596 26.879 42.3444 26.2584 42.8117C26.0657 42.9568 25.8989 43.081 25.7606 43.1832C25.6222 43.081 25.4555 42.9568 25.2627 42.8117C24.6421 42.3444 23.7535 41.6596 22.6865 40.7929C20.5511 39.0587 17.7068 36.6014 14.8655 33.7064C12.0214 30.8087 9.19832 27.4906 7.0906 24.0358C4.97777 20.5728 3.6238 17.0378 3.6238 13.6898C3.6238 6.98033 8.72952 1.62484 14.9237 1.62484C19.3205 1.62484 23.1573 4.31203 25.0263 8.27758C25.1602 8.56201 25.4464 8.74349 25.7606 8.74349C26.0748 8.74349 26.3609 8.56201 26.4949 8.27758C28.3639 4.31203 32.2006 1.62484 36.5974 1.62484C39.7805 1.62484 42.5891 2.5909 44.5974 4.53164C45.7467 5.64218 46.6642 7.10095 47.237 8.94328L49 9.21669C48.3873 6.79508 47.2565 4.84225 45.7254 3.36283C43.35 1.06747 40.1027 0 36.5974 0C32.0411 0 28.0579 2.49324 25.7606 6.22714C23.4632 2.49324 19.48 0 14.9237 0Z" fill="black"/>
<path d="M48 32C52.9706 32 57 27.9706 57 23C57 18.0294 52.9706 14 48 14C43.0294 14 39 18.0294 39 23C39 27.9706 43.0294 32 48 32Z" stroke="black" stroke-width="1.71429"/>
<path d="M43 23H54" stroke="black" stroke-width="1.71429" stroke-linecap="round"/>
<path d="M48 17V28" stroke="black" stroke-width="1.71429" stroke-linecap="round"/>
<path d="M0 23.0282H15.2026L18.663 12L25.0162 34L28.4199 23.0282H35" stroke="black" stroke-width="1.71429"/>
</svg>
