<svg xmlns="http://www.w3.org/2000/svg" width="66" height="62" fill="none">
      <defs/>
      <path fill="#9a9a9a" d="M.99 8.21c0 6.534-.066 7.59-.495 7.59S0 18.341 0 36.821c0 20.394.033 21.054.66 22.341.363.759 1.089 1.65 1.584 2.013.858.66 1.485.66 30.36.759L62.106 62l1.287-.726c.825-.462 1.518-1.221 1.947-2.079.627-1.32.66-2.046.66-22.374 0-18.48-.066-21.021-.495-21.021s-.495-1.056-.495-7.59V.62H.99v7.59zm5.676-2.739l2.871 2.904-2.805 3.696C5.214 14.117 3.795 15.8 3.63 15.8c-.198 0-.33-2.508-.33-6.6 0-3.63.099-6.6.264-6.6.132 0 1.551 1.287 3.102 2.871zm49.665-.264L53.79 7.814V15.8H12.21V7.814L9.669 5.207 7.161 2.6h51.678l-2.508 2.607zM62.7 9.2c0 4.092-.132 6.6-.33 6.6-.165 0-1.584-1.683-3.102-3.729l-2.805-3.696 2.871-2.904c1.551-1.584 2.97-2.871 3.102-2.871.165 0 .264 2.97.264 6.6zM9.9 13.82v1.98H8.415c-.825 0-1.485-.066-1.485-.165 0-.231 2.673-3.795 2.838-3.795.066 0 .132.891.132 1.98zm47.817-.165c.726.99 1.353 1.881 1.353 1.98 0 .099-.66.165-1.485.165H56.1v-1.98c0-1.089.066-1.98.132-1.98s.726.825 1.485 1.815zm5.973 24.387v19.965l-.792.924-.792.924H3.894l-.792-.924-.792-.924V18.11h61.38v19.932z"/>
      <path fill="#9a9a9a" d="M17.589 22.07c-1.782 1.089-2.706 3.696-1.584 4.62.627.528 1.089.165 1.716-1.353.891-2.211 3.267-2.211 4.158 0 .627 1.518 1.089 1.881 1.716 1.353 1.155-.957.066-3.828-1.782-4.785-1.353-.66-2.937-.627-4.224.165zM43.989 22.07c-1.782 1.089-2.706 3.696-1.584 4.62.627.528 1.056.198 1.683-1.254.561-1.386.957-1.716 2.178-1.716 1.056 0 1.881.759 2.145 2.013.33 1.716 2.079 1.452 2.079-.33 0-3.003-3.828-4.983-6.501-3.333z"/>
      <path fill="#9a9a9a" d="M18.942 25.172c-.099.264-.132 2.838-.066 5.742l.099 5.214 1.221 2.475c2.772 5.577 8.844 8.844 14.718 7.92 4.884-.759 8.943-3.795 11.088-8.283 1.023-2.145 1.023-2.178 1.023-7.755v-5.61h-1.65l-.198 4.95c-.231 5.016-.396 6.072-1.452 8.118-2.046 3.927-6.336 6.567-10.758 6.567-3.465 0-7.788-2.178-9.636-4.851-1.98-2.871-2.31-4.191-2.508-9.669-.198-4.983-.231-5.115-.957-5.214-.429-.066-.792.099-.924.396z"/>
    </svg>