<svg width="57" height="45" viewBox="0 0 57 45" fill="none" xmlns="http://www.w3.org/2000/svg">
<path d="M38.9516 30.2427C43.0259 30.2427 46.3289 29.0091 46.3289 27.4873C46.3289 25.9656 43.0259 24.7319 38.9516 24.7319C34.8772 24.7319 31.5742 25.9656 31.5742 27.4873C31.5742 29.0091 34.8772 30.2427 38.9516 30.2427Z" stroke="black" stroke-width="1.5" stroke-miterlimit="10" stroke-linecap="round" stroke-linejoin="round"/>
<path d="M46.3289 27.4873V40.7309C46.3289 42.242 43.0402 43.4863 38.9516 43.4863C34.8629 43.4863 31.5742 42.242 31.5742 40.7309V27.4873C31.5742 28.9983 34.8629 30.2427 38.9516 30.2427C43.0402 30.2427 46.3289 28.9983 46.3289 27.4873Z" stroke="black" stroke-width="1.5" stroke-miterlimit="10" stroke-linecap="round" stroke-linejoin="round"/>
<path d="M56.1053 31.9312C56.1053 33.4422 52.8166 34.6866 48.728 34.6866C47.8391 34.6866 47.0392 34.5977 46.3281 34.5088V29.3535C47.1281 29.2647 47.928 29.1758 48.728 29.1758C52.8166 29.1758 56.1053 30.4202 56.1053 31.9312Z" stroke="black" stroke-width="1.5" stroke-miterlimit="10" stroke-linecap="round" stroke-linejoin="round"/>
<path d="M56.1058 31.9316V40.7311C56.1058 42.2421 52.8171 43.4865 48.7284 43.4865C46.8619 43.4865 45.1731 43.2198 43.8398 42.7754C45.3509 42.2421 46.3286 41.5311 46.3286 40.7311V34.5093C47.1285 34.5981 47.9285 34.687 48.7284 34.687C52.8171 34.687 56.1058 33.4427 56.1058 31.9316Z" stroke="black" stroke-width="1.5" stroke-miterlimit="10" stroke-linecap="round" stroke-linejoin="round"/>
<path d="M46.3289 31.9316C46.3289 33.4427 43.0402 34.687 38.9516 34.687C34.8629 34.687 31.5742 33.4427 31.5742 31.9316" stroke="black" stroke-width="1.5" stroke-miterlimit="10" stroke-linecap="round" stroke-linejoin="round"/>
<path d="M46.3289 36.3755C46.3289 37.8865 43.0402 39.1309 38.9516 39.1309C34.8629 39.1309 31.5742 37.8865 31.5742 36.3755" stroke="black" stroke-width="1.5" stroke-miterlimit="10" stroke-linecap="round" stroke-linejoin="round"/>
<path d="M56.1063 36.3755C56.1063 37.8865 52.8176 39.1309 48.7289 39.1309C47.929 39.1309 47.2179 39.042 46.418 39.042" stroke="black" stroke-width="1.5" stroke-miterlimit="10" stroke-linecap="round" stroke-linejoin="round"/>
<path d="M46.3328 27.4873C46.3328 25.9763 43.0441 24.7319 38.9555 24.7319C34.8668 24.7319 31.5781 25.9763 31.5781 27.4873V40.731C31.5781 42.242 34.8668 43.4864 38.9555 43.4864C40.822 43.4864 42.5108 43.2197 43.8441 42.7753C45.1773 43.2197 46.8661 43.4864 48.7326 43.4864C52.8213 43.4864 56.11 42.242 56.11 40.731V31.9315C56.11 30.4205 52.8213 29.1761 48.7326 29.1761C47.9327 29.1761 47.1327 29.265 46.3328 29.3539V27.4873ZM46.3328 27.4873C46.3328 27.8429 46.155 28.1095 45.8884 28.465C46.155 28.1984 46.3328 27.8429 46.3328 27.4873Z" stroke="black" stroke-width="1.5" stroke-miterlimit="10" stroke-linecap="round" stroke-linejoin="round"/>
<path d="M56.1063 36.3755C56.1063 37.8865 52.8176 39.1309 48.7289 39.1309C47.929 39.1309 47.2179 39.042 46.418 39.042" stroke="black" stroke-width="1.5" stroke-miterlimit="10" stroke-linecap="round" stroke-linejoin="round"/>
<path d="M30.776 20.5543L33.798 22.2431L19.5767 30.5093L19.2211 30.6871L18.7767 30.5982L1.44442 20.5543L1 20.2877L15.5769 11.8438L18.5989 13.5325L30.776 20.5543Z" stroke="black" stroke-width="1.5" stroke-miterlimit="10" stroke-linecap="round" stroke-linejoin="round"/>
<path d="M52.4665 11.4883L40.3783 18.5101L37.4452 16.7324L25.2681 9.71058L22.2461 8.0218L27.0458 5.26641L33.8898 1.17777L34.2454 1L34.6009 1.26665L51.9332 11.3105L52.4665 11.4883Z" stroke="black" stroke-width="1.5" stroke-miterlimit="10" stroke-linecap="round" stroke-linejoin="round"/>
<path d="M30.7736 20.554L19.9298 26.8647C19.3965 26.5981 18.7743 26.5981 18.241 26.8647L8.73047 21.354C9.53042 20.9095 9.53042 19.7541 8.73047 19.3096L18.5965 13.6211L30.7736 20.554Z" stroke="black" stroke-width="1.5" stroke-miterlimit="10" stroke-linecap="round" stroke-linejoin="round"/>
<path d="M44.5494 12.5551L37.4388 16.7326L25.2617 9.71084L33.5279 4.91113C34.0612 5.17778 34.6834 5.17778 35.2167 4.91113L44.5494 10.333C43.7495 10.8663 43.7495 12.1107 44.5494 12.5551Z" stroke="black" stroke-width="1.5" stroke-miterlimit="10" stroke-linecap="round" stroke-linejoin="round"/>
<path d="M40.3727 18.5102L35.8397 21.1767L33.7953 22.3322L30.7733 20.5546L18.5963 13.5328L15.5742 11.844L22.2405 8.02197L25.1736 9.71076L37.4396 16.7326L40.3727 18.5102Z" stroke="black" stroke-width="1.5" stroke-miterlimit="10" stroke-linecap="round" stroke-linejoin="round"/>
<path d="M36.6451 9.26619C35.6673 8.73289 34.0674 8.73289 33.1786 9.26619C32.2009 9.79949 32.2009 10.7772 33.1786 11.3105C34.1563 11.8438 35.7562 11.8438 36.6451 11.3105C37.6228 10.6883 37.6228 9.79949 36.6451 9.26619Z" stroke="black" stroke-width="1.5" stroke-miterlimit="10" stroke-linecap="round" stroke-linejoin="round"/>
<path d="M20.1099 19.2213C19.1322 18.688 17.5323 18.688 16.6434 19.2213C15.6657 19.7546 15.6657 20.7323 16.6434 21.2656C17.6212 21.7989 19.2211 21.7989 20.1099 21.2656C20.9987 20.7323 21.0876 19.7546 20.1099 19.2213Z" stroke="black" stroke-width="1.5" stroke-miterlimit="10" stroke-linecap="round" stroke-linejoin="round"/>
<path d="M1 20.2881V24.5545V24.6434L19.1322 35.1316L28.7317 29.532" stroke="black" stroke-width="1.5" stroke-miterlimit="10" stroke-linecap="round" stroke-linejoin="round"/>
<path d="M41.7109 22.0654L52.4658 15.8436V15.6658V11.4883" stroke="black" stroke-width="1.5" stroke-miterlimit="10" stroke-linecap="round" stroke-linejoin="round"/>
<path d="M1 24.5542V24.6431V28.8206L19.1322 39.3089L28.8205 33.7092" stroke="black" stroke-width="1.5" stroke-miterlimit="10" stroke-linecap="round" stroke-linejoin="round"/>
<path d="M46.418 23.4878L52.4621 20.0213V15.8438V15.666" stroke="black" stroke-width="1.5" stroke-miterlimit="10" stroke-linecap="round" stroke-linejoin="round"/>
<path d="M1 28.7314V32.9979L19.1322 43.4861L28.9094 37.8864" stroke="black" stroke-width="1.5" stroke-miterlimit="10" stroke-linecap="round" stroke-linejoin="round"/>
<path d="M52.4645 19.8433V24.1986L48.8203 26.3318" stroke="black" stroke-width="1.5" stroke-miterlimit="10" stroke-linecap="round" stroke-linejoin="round"/>
<path d="M33.7969 22.7762V22.3318L40.3743 18.5098V22.154" stroke="black" stroke-width="1.5" stroke-miterlimit="10" stroke-linecap="round" stroke-linejoin="round"/>
</svg>
