<svg width="47" height="47" viewBox="0 0 47 47" fill="none" xmlns="http://www.w3.org/2000/svg">
<path d="M30.3016 14.9468C25.7307 8.22218 19.6259 4.64812 16.4289 6.83801C16.0768 7.08592 15.7709 7.39357 15.525 7.74702C15.525 7.77284 8.1238 22.7509 8.1238 22.7509L3.99193 25.5502C3.35763 25.9808 2.81438 26.5321 2.39321 27.1727C1.97204 27.8133 1.6812 28.5306 1.53731 29.2836C1.39342 30.0366 1.3993 30.8106 1.55461 31.5614C1.70993 32.3121 2.01163 33.0249 2.44248 33.659L2.62842 33.9327C3.49932 35.2014 4.83525 36.0755 6.34648 36.3656C7.8577 36.6557 9.42234 36.3382 10.7011 35.4822L17.3379 45.2592C18.314 46.4626 20.1889 47.6609 22.5027 46.2509C22.9126 45.9851 23.2623 45.6363 23.5292 45.2271C23.796 44.8179 23.9742 44.3573 24.0522 43.875C24.1456 43.3953 24.1431 42.9019 24.0447 42.4231C23.9463 41.9444 23.754 41.49 23.4789 41.086L17.6323 32.4608C17.6323 32.4608 31.4534 31.3606 31.505 31.34C31.9365 31.2497 32.3457 31.0741 32.7084 30.8235C34.3508 29.7079 34.9396 27.3682 34.3715 24.2332C33.8602 21.346 32.4089 18.0767 30.3016 14.9468ZM4.13138 32.9153L3.94545 32.6415C3.64818 32.2039 3.44014 31.7119 3.33325 31.1938C3.22635 30.6756 3.22268 30.1415 3.32247 29.622C3.42225 29.1024 3.62353 28.6076 3.91477 28.166C4.20601 27.7243 4.58149 27.3444 5.01974 27.048L8.58864 24.6205L13.299 31.5569L9.73007 33.9844C9.29233 34.282 8.80023 34.4905 8.28188 34.5979C7.76354 34.7052 7.22911 34.7094 6.70916 34.6101C6.18921 34.5108 5.69392 34.31 5.25161 34.0192C4.8093 33.7284 4.42864 33.3533 4.13138 32.9153ZM21.9914 42.1035C22.2737 42.5235 22.3778 43.0384 22.281 43.5351C22.1842 44.0318 21.8943 44.4698 21.4749 44.7531C21.0541 45.0356 20.5384 45.1399 20.0409 45.0431C19.5433 44.9463 19.1044 44.6563 18.8202 44.2366L12.204 34.4905L14.8639 32.6828L15.5663 32.626L21.9914 42.1035ZM15.0085 30.8545L9.87468 23.2932L14.7709 13.3095C15.2461 16.1141 16.6354 19.4454 18.8563 22.7147C21.0772 25.9841 23.6596 28.5045 26.0871 29.9816L15.0085 30.8545ZM30.2448 29.6511C27.776 29.491 23.7578 26.7071 20.3541 21.6921C16.9505 16.677 15.8452 11.9305 16.6045 9.57021C16.7416 9.12716 17.0152 8.73877 17.3862 8.46051C17.7572 8.18224 18.2067 8.02833 18.6704 8.02076C21.1185 8.02076 25.2866 10.8201 28.7883 15.9798C30.7613 18.8824 32.1971 21.9193 32.5896 24.5741C33.3592 29.6511 30.2448 29.6511 30.2448 29.6511Z" fill="black"/>
<path d="M23.8458 15.1383C23.2132 15.014 22.5621 15.0172 21.9307 15.1475C21.2993 15.2779 20.7002 15.5329 20.1685 15.8975C20.0705 15.9653 19.9868 16.0518 19.9222 16.1519C19.8576 16.2521 19.8134 16.364 19.792 16.4813C19.7707 16.5985 19.7726 16.7189 19.7978 16.8354C19.8229 16.9519 19.8708 17.0623 19.9386 17.1603C20.0065 17.2583 20.0929 17.342 20.1931 17.4066C20.2933 17.4712 20.4052 17.5154 20.5224 17.5367C20.6397 17.5581 20.76 17.5561 20.8765 17.531C20.993 17.5058 21.1034 17.4579 21.2014 17.3901C21.5382 17.1616 21.9167 17.0015 22.3153 16.9192C22.7138 16.8369 23.1247 16.834 23.5245 16.9104C23.9242 16.9869 24.305 17.1414 24.645 17.3651C24.9851 17.5887 25.2777 17.8772 25.5063 18.2139C25.7349 18.5507 25.8949 18.9291 25.9772 19.3277C26.0595 19.7263 26.0625 20.1372 25.986 20.537C25.9095 20.9367 25.755 21.3175 25.5314 21.6575C25.3077 21.9976 25.0193 22.2902 24.6825 22.5188C24.5237 22.6285 24.4042 22.7861 24.3414 22.9685C24.2787 23.151 24.2759 23.3488 24.3337 23.5329C24.3914 23.717 24.5065 23.8779 24.6622 23.9919C24.8179 24.1058 25.006 24.167 25.199 24.1664C25.3831 24.1698 25.5637 24.1157 25.7155 24.0114C26.5188 23.4673 27.1426 22.6969 27.5077 21.7979C27.8728 20.8989 27.9629 19.9118 27.7666 18.9616C27.5702 18.0114 27.0963 17.1408 26.4047 16.4602C25.7132 15.7795 24.8352 15.3195 23.882 15.1383H23.8458Z" fill="black"/>
<path d="M31.4159 8.6614H31.5037C31.7273 8.66131 31.9429 8.57837 32.1089 8.42861C32.2748 8.27885 32.3794 8.07289 32.4024 7.85052L33.0997 1.07426C33.1155 0.954436 33.1072 0.832648 33.0752 0.7161C33.0432 0.599553 32.9881 0.490613 32.9132 0.395726C32.8383 0.300839 32.7452 0.221932 32.6393 0.163675C32.5334 0.105418 32.4169 0.0689929 32.2967 0.0565557C32.1764 0.0441184 32.0549 0.0559214 31.9394 0.0912663C31.8238 0.126611 31.7164 0.18478 31.6237 0.262331C31.531 0.339882 31.4548 0.43524 31.3996 0.542764C31.3444 0.650287 31.3113 0.767791 31.3023 0.888324L30.6102 7.66975C30.5857 7.90808 30.6567 8.1464 30.8078 8.33235C30.9589 8.5183 31.1776 8.63665 31.4159 8.6614Z" fill="black"/>
<path d="M43.1013 7.26686C42.9686 7.06682 42.7622 6.92739 42.527 6.87901C42.2919 6.83063 42.0472 6.87722 41.8463 7.00862L35.5503 11.1405C35.3869 11.2484 35.2629 11.4066 35.1971 11.5911C35.1312 11.7756 35.1272 11.9765 35.1854 12.1636C35.2437 12.3506 35.3612 12.5137 35.5201 12.6282C35.6791 12.7427 35.871 12.8024 36.0668 12.7984C36.2495 12.8026 36.4294 12.7523 36.5833 12.6538L42.8792 8.52192C43.0746 8.3845 43.2076 8.17536 43.2492 7.9402C43.2908 7.70504 43.2376 7.46297 43.1013 7.26686Z" fill="black"/>
<path d="M45.0258 18.2991L37.702 16.982C37.4658 16.9396 37.2223 16.9927 37.0252 17.1298C36.8281 17.2668 36.6935 17.4766 36.651 17.7129C36.6085 17.9492 36.6617 18.1926 36.7987 18.3898C36.9358 18.5869 37.1455 18.7215 37.3818 18.7639L44.7004 20.081H44.8605C45.0908 20.0877 45.315 20.0062 45.4872 19.8532C45.6594 19.7002 45.7667 19.4872 45.7872 19.2577C45.8076 19.0282 45.7397 18.7996 45.5972 18.6185C45.4547 18.4375 45.2485 18.3177 45.0206 18.2836L45.0258 18.2991Z" fill="black"/>
</svg>
