<svg width="45" height="45" viewBox="0 0 45 45" fill="none" xmlns="http://www.w3.org/2000/svg">
<path d="M37.3261 1.27461C35.6826 1.77558 35.3662 1.93379 35.0849 2.39961C34.7861 2.88301 34.7597 3.26972 34.9795 4.0959C35.0937 4.50019 35.164 4.85176 35.1465 4.86054C35.1289 4.87812 34.5224 5.10664 33.7929 5.37031C31.833 6.07344 31.8945 6.08222 28.7392 4.79023C27.3594 4.22773 25.9707 3.66523 25.6455 3.55097C24.7578 3.23457 23.8174 3.19062 22.5429 3.41914C21.1806 3.65644 9.37696 6.86445 8.79688 7.15449C8.18165 7.4709 7.53126 8.15644 7.18848 8.85078C6.92481 9.3957 6.89844 9.50996 6.89844 10.2834C6.89844 11.0392 6.92481 11.1623 7.13575 11.5314C7.45215 12.0675 7.99708 12.5158 8.60352 12.7619C9.03419 12.9377 9.2627 12.9552 10.458 12.964C11.7851 12.964 11.9082 12.9465 15.248 12.3224C17.1377 11.9709 18.7636 11.6545 18.8691 11.6281C19.0185 11.5929 19.0888 11.6457 19.1943 11.8566C19.414 12.2785 19.8447 12.7267 20.2666 12.9728C20.4775 13.0959 21.7168 13.6056 23.0263 14.1066C24.6963 14.7394 25.4873 15.091 25.707 15.2756C26.5771 16.049 27.79 16.6906 28.8095 16.9279C29.5566 17.1037 30.8135 17.0509 31.7275 16.7961C32.0879 16.6994 33.6523 16.1632 35.1992 15.6007C36.7461 15.047 38.0381 14.59 38.0732 14.59C38.0996 14.59 38.1611 14.6779 38.1875 14.7834C38.3808 15.3986 39.0928 15.8996 39.7783 15.9084C40.1386 15.9084 42.8896 15.1261 43.3291 14.8976C43.8125 14.6427 44.208 13.9924 44.208 13.4299C44.208 12.9552 40.7978 1.75801 40.5517 1.4416C40.2881 1.08125 39.6816 0.79121 39.2334 0.799999C39.0488 0.799999 38.1875 1.01972 37.3261 1.27461ZM39.4883 2.13594C39.5937 2.20625 40.209 4.12226 41.3076 7.79609C42.2304 10.8547 42.9775 13.4123 42.9775 13.4738C42.9775 13.5441 42.9072 13.6584 42.8281 13.7287C42.6523 13.8869 40.0771 14.6779 39.7607 14.6779C39.6377 14.6779 39.497 14.59 39.4267 14.4757C39.3652 14.3703 38.5654 11.8127 37.6689 8.78926C36.3242 4.31562 36.0429 3.26972 36.1133 3.10273C36.1836 2.95332 36.3857 2.85664 36.9746 2.68086C37.3965 2.54902 38.0469 2.35566 38.4072 2.2414C39.1806 1.99531 39.2861 1.98652 39.4883 2.13594ZM27.834 5.74824C29.4687 6.39863 31.0156 6.9875 31.2793 7.04023C32.0088 7.18965 32.6416 7.08418 34.1445 6.53926C34.9004 6.26679 35.5332 6.06465 35.5508 6.07344C35.6035 6.12617 37.7041 13.1662 37.7041 13.2892C37.7041 13.4035 36.3066 13.922 32.6679 15.1789C30.2861 16.005 29.3896 16.0314 27.9746 15.3195C27.623 15.1437 27.0254 14.7482 26.6386 14.4494C25.997 13.9396 25.8125 13.8517 23.5888 13.008C20.8906 11.9797 20.8642 11.9709 20.5478 11.6281C20.249 11.3117 20.126 10.9865 20.126 10.4943C20.126 9.58906 20.8379 8.87715 21.7519 8.87715C22.0508 8.87715 22.956 9.18476 25.4082 10.1164C27.2011 10.8019 28.7656 11.3556 28.8799 11.3556C29.3633 11.3556 29.6445 10.6701 29.2929 10.3537C29.2051 10.2746 27.6494 9.64179 25.8388 8.94746L22.5429 7.69062H21.7519C21.0928 7.69941 20.8906 7.73457 20.5215 7.91035C19.7304 8.29707 19.0625 9.17597 18.9306 10.0109C18.8867 10.2834 18.8252 10.38 18.6845 10.4152C18.5879 10.4416 16.9795 10.7492 15.1162 11.092C11.9345 11.6896 11.6533 11.7336 10.5019 11.7336C9.15723 11.7336 8.83204 11.6457 8.35743 11.1271C8.10255 10.8547 8.00587 10.1252 8.16407 9.64179C8.32227 9.18476 8.83204 8.56074 9.25391 8.31465C9.54395 8.14765 16.5312 6.18769 21.708 4.82539C22.5605 4.60566 23.457 4.4914 24.1426 4.51777C24.8369 4.55293 24.9863 4.59687 27.834 5.74824Z" fill="black"/>
<path d="M19.9492 17.2793C19.0087 17.8857 17.5146 18.5713 16.2578 18.9844C15.2382 19.3184 14.957 19.4414 14.8691 19.6084C14.7285 19.8721 14.7724 27.0967 14.913 27.6152L15.0097 27.9492H14.7197C13.955 27.9492 13.1728 28.1865 9.57813 29.4785C8.1543 29.9883 6.95899 30.4102 6.92383 30.4102C6.89746 30.4102 6.83594 30.3223 6.80957 30.208C6.61621 29.6016 5.9043 29.1006 5.21875 29.0918C4.8584 29.0918 2.10743 29.874 1.66797 30.1025C1.18457 30.3574 0.789062 31.0078 0.789062 31.5703C0.789062 32.0449 4.19922 43.2422 4.44532 43.5586C4.7002 43.9014 5.30664 44.209 5.72852 44.209C6.05371 44.209 8.78711 43.418 9.29688 43.1807C9.67481 42.9961 9.98243 42.5918 10.1142 42.0908C10.2109 41.7305 10.2021 41.5986 10.0175 40.9219C9.91211 40.5 9.83301 40.1484 9.85059 40.1309C9.86817 40.1221 10.4834 39.8936 11.2041 39.6299C13.1816 38.918 13.1201 38.9092 16.2578 40.21C19.8437 41.6865 19.8613 41.6953 21.1357 41.6865C22.4541 41.6865 22.4541 41.6865 29.0195 39.9023C35.7255 38.083 35.7255 38.083 36.2177 37.8369C36.8154 37.5293 37.4658 36.8438 37.8085 36.1494C38.0722 35.6045 38.0986 35.4902 38.0986 34.7168C38.0986 33.9609 38.0722 33.8379 37.8613 33.4688C37.5449 32.9326 37 32.4756 36.3935 32.2383C36.0068 32.0889 35.6552 32.0449 34.7587 32.0186C33.6513 31.9834 33.5195 31.9922 30.4521 32.5635C28.7119 32.8799 27.2089 33.1611 27.1123 33.1963C27.0156 33.2227 27.2968 32.8711 27.7275 32.4229C29.3447 30.7441 30.3027 29.0127 30.5839 27.2461C30.6279 26.9297 30.6718 25.1367 30.6718 23.1768V19.6787L30.4521 19.4678C30.3378 19.3447 30.1796 19.248 30.1093 19.248C29.8193 19.248 28.2109 18.6855 27.3584 18.2812C26.8574 18.0439 26.1279 17.6572 25.7148 17.4111L24.9765 16.9629H22.7089L20.4326 16.9717L19.9492 17.2793ZM25.5126 18.7119C26.5585 19.3096 27.3935 19.6875 28.5625 20.083L29.3974 20.373L29.4238 23.4756C29.4501 26.9209 29.3974 27.4482 28.9052 28.5908C28.3867 29.8125 27.0332 31.5527 25.8994 32.4492L25.5654 32.7217L25.2402 32.4053C24.8007 31.9922 24.6513 31.9219 21.9531 30.8848C20.2919 30.252 19.5097 29.9092 19.29 29.7246C18.5869 29.1006 17.5498 28.4854 16.75 28.2129C16.0732 27.9844 16.0556 27.8965 16.0468 23.792L16.038 20.373L16.873 20.0918C18.0068 19.7051 19.2373 19.1514 20.081 18.6328L20.7841 18.2109L22.7001 18.2021L24.6074 18.1934L25.5126 18.7119ZM15.9941 29.2764C16.6181 29.417 17.5673 29.9268 18.332 30.5332C19.0087 31.0605 19.1669 31.1396 21.54 32.0449C24.1503 33.0469 24.5195 33.249 24.748 33.8115C24.9941 34.3828 24.8623 35.1475 24.4404 35.6309C24.2031 35.9033 23.6669 36.123 23.2451 36.123C22.9462 36.123 22.0322 35.8066 19.5097 34.8486C17.497 34.084 16.1084 33.6006 16.0205 33.6357C15.7216 33.7412 15.5546 33.9521 15.5546 34.2334C15.5546 34.3916 15.625 34.5762 15.7128 34.6465C15.7919 34.7256 17.3476 35.3496 19.1582 36.0439L22.4541 37.3096H23.2451C23.9042 37.3008 24.1064 37.2656 24.4755 37.0898C25.2666 36.7031 25.9345 35.8242 26.0664 34.9893C26.1103 34.7168 26.1718 34.6201 26.3125 34.585C26.4091 34.5586 28.0175 34.2598 29.8808 33.9082C33.0625 33.3018 33.3349 33.2666 34.4951 33.2666C35.8398 33.2666 36.165 33.3545 36.6396 33.873C36.8946 34.1455 36.9912 34.875 36.833 35.3584C36.6748 35.8154 36.1738 36.4395 35.7431 36.6855C35.3916 36.8877 24.2822 39.9639 22.6298 40.3154C22.2431 40.4033 21.5312 40.4736 21.0478 40.4736H20.1689L17.1806 39.2695C15.5371 38.6016 13.999 38.0127 13.7705 37.96C13.0761 37.793 12.3642 37.916 10.8613 38.4609C10.1054 38.7334 9.47266 38.9443 9.44629 38.9268C9.39356 38.874 7.29297 31.834 7.29297 31.7109C7.29297 31.6406 7.81153 31.4121 8.59375 31.1396C9.30567 30.8936 10.6152 30.4189 11.5117 30.1025C12.4082 29.7773 13.4189 29.4434 13.7529 29.3555C14.4384 29.1709 15.3964 29.1357 15.9941 29.2764ZM5.57032 30.5156C5.77246 30.8584 8.97168 41.6689 8.91895 41.8447C8.83985 42.0732 8.75196 42.1084 7.17871 42.583C5.62305 43.0488 5.44727 43.04 5.28028 42.5215C4.86719 41.2207 2.01953 31.6143 2.01953 31.5264C2.01953 31.2891 2.34473 31.1221 3.64551 30.7354C5.1836 30.2695 5.39453 30.2432 5.57032 30.5156Z" fill="black"/>
<path d="M25.0225 23.5284C24.3896 24.047 23.2646 24.9522 22.5264 25.5499C21.7969 26.1475 21.1641 26.6309 21.1201 26.6309C21.085 26.6309 20.7334 26.1475 20.3467 25.5587C19.4854 24.2491 19.415 24.17 19.0371 24.17C18.6943 24.17 18.457 24.4161 18.457 24.7589C18.457 24.8731 18.9316 25.6729 19.5205 26.5431C20.6631 28.2393 20.8125 28.3712 21.2695 28.1075C21.5508 27.9493 26.7188 23.7569 26.877 23.5723C27.0352 23.3614 27.0088 22.9659 26.8066 22.7638C26.4814 22.4386 26.2617 22.5352 25.0225 23.5284Z" fill="black"/>
</svg>
