<svg width="49" height="52" viewBox="0 0 49 52" fill="none" xmlns="http://www.w3.org/2000/svg">
<path fill-rule="evenodd" clip-rule="evenodd" d="M4.41043 7.78626C9.87739 7.35688 14.6394 4.98189 18.2398 2.43513C18.3538 2.35443 18.4904 2.31104 18.6306 2.31104H30.3683C30.5085 2.31104 30.6451 2.35443 30.7592 2.43513C34.3595 4.98189 39.1216 7.35688 44.5885 7.78626C44.9382 7.81367 45.2079 8.10277 45.2079 8.45031V25.7895C45.2079 31.5558 42.2735 36.8704 38.2149 41.0277C34.1863 45.1541 29.0578 48.1344 24.6737 49.299C24.5595 49.3294 24.4393 49.3294 24.3252 49.299C19.9425 48.1344 14.814 45.1541 10.7851 41.0277C6.72612 36.8705 3.79102 31.5558 3.79102 25.7895V8.45031C3.79102 8.10277 4.06071 7.81367 4.41043 7.78626ZM5.13611 9.05764V25.7895C5.13611 31.212 7.93507 36.1922 11.7521 40.1016C15.5459 43.9873 20.3535 46.8208 24.4995 47.965C28.6468 46.8208 33.4543 43.9873 37.2478 40.1016C41.0645 36.1922 43.8628 31.212 43.8628 25.7895V9.05764C38.4784 8.49409 33.7692 6.16915 30.154 3.64332H18.8451C15.2296 6.16915 10.5205 8.49409 5.13611 9.05764ZM19.3168 5.77251C19.324 5.75329 19.3283 5.74282 19.3283 5.74272C19.4031 5.69704 19.4833 5.66764 19.565 5.65336C19.5903 5.64861 19.6183 5.64547 19.6495 5.64413C19.6611 5.64356 19.6728 5.64337 19.6846 5.64337C19.7018 5.64337 19.7955 5.64347 19.9516 5.64347H29.3199C29.4537 5.64347 29.5843 5.68286 29.6952 5.75681C33.2213 8.10553 37.1417 9.87805 41.3038 10.6913C41.6572 10.7603 41.8448 10.9606 41.8461 11.3492V11.7492V25.7895C41.8461 29.352 40.3884 32.8766 38.1092 35.9849C34.7373 40.5833 29.5685 44.2691 24.7054 45.818C24.5714 45.8607 24.4274 45.8607 24.2936 45.818C19.4304 44.269 14.2616 40.5822 10.8898 35.9837C8.6105 32.8753 7.1528 29.3509 7.1528 25.7895V11.3448C7.1528 11.0266 7.37993 10.7529 7.69516 10.6913C11.8574 9.87805 15.7779 8.10544 19.3065 5.75671L19.3168 5.77251ZM40.501 11.8869C36.4324 11.0104 32.5916 9.2651 29.1158 6.97575C27.876 6.97575 21.3628 6.97575 19.9516 6.97575H19.8857C16.4076 9.2652 12.5665 11.0104 8.4979 11.8869V25.7895C8.4979 29.0807 9.87172 32.3281 11.9781 35.2007C15.1336 39.5042 19.9406 42.9739 24.4995 44.4828C29.0584 42.974 33.8654 39.5052 37.0209 35.2019C39.1272 32.3295 40.501 29.0817 40.501 25.7895C40.501 25.7895 40.501 14.5135 40.501 11.8869ZM21.2045 13.5932C25.1414 12.4692 29.5612 13.3996 32.7206 16.4158C36.5389 20.061 37.351 25.6403 35.1005 30.1062C34.9346 30.4352 34.5304 30.5689 34.1983 30.4047C33.8663 30.2405 33.7312 29.8402 33.8969 29.5112C35.892 25.5523 35.172 20.6064 31.7872 17.375C29.0332 14.7459 25.199 13.9048 21.7536 14.8245L22.1744 14.8806C22.5423 14.9296 22.8007 15.2652 22.7512 15.6296C22.7017 15.994 22.3629 16.25 21.995 16.201L19.053 15.8089C18.8149 15.7772 18.6119 15.622 18.5206 15.4019C18.4293 15.1818 18.4634 14.9301 18.6102 14.7418L20.4241 12.4142C20.651 12.1231 21.0736 12.0692 21.3674 12.2939C21.6613 12.5185 21.7157 12.9372 21.489 13.2282L21.2045 13.5932ZM27.2659 34.8981L26.8237 34.8377C26.456 34.7875 26.1986 34.451 26.2494 34.0869C26.3 33.7227 26.6397 33.4677 27.0074 33.5179L29.9481 33.9195C30.1862 33.952 30.3886 34.1078 30.4792 34.3282C30.5698 34.5487 30.5347 34.8002 30.3874 34.9881L28.5659 37.3098C28.3381 37.6001 27.9153 37.6526 27.6221 37.4271C27.329 37.2015 27.2759 36.7826 27.5038 36.4923L27.7811 36.1387C23.8476 37.2568 19.4341 36.3252 16.2783 33.3123C12.4601 29.6672 11.6479 24.0878 13.8985 19.6219C14.0643 19.2929 14.4685 19.1592 14.8006 19.3234C15.1327 19.4876 15.2678 19.888 15.102 20.2169C13.107 24.1758 13.827 29.1217 17.2117 32.3531C19.9712 34.9874 23.8152 35.8266 27.2659 34.8981ZM23.1721 25.0243L27.8457 21.2932C28.6797 20.6273 29.9025 20.7574 30.5748 21.5835C31.2471 22.4096 31.1157 23.6209 30.2817 24.2867L23.9651 29.3294C23.5424 29.6669 22.9963 29.8136 22.4593 29.7339C21.9225 29.6541 21.4438 29.3553 21.1395 28.91L18.8397 25.5431C18.2394 24.6643 18.4724 23.4681 19.3597 22.8736C20.2468 22.2791 21.4546 22.5098 22.0548 23.3886L23.1721 25.0243ZM23.0584 26.6493C23.0162 26.6492 23.0194 26.6482 23.0194 26.6482C22.8468 26.6396 22.6059 26.5728 22.425 26.3081L20.9407 24.1351C20.7565 23.8654 20.3858 23.7946 20.1134 23.9771C19.841 24.1596 19.7695 24.5267 19.9538 24.7965L22.2536 28.1634C22.347 28.3002 22.4939 28.3919 22.6588 28.4164C22.8236 28.4408 22.9912 28.3958 23.1209 28.2922L29.4375 23.2494C29.6936 23.045 29.7339 22.6731 29.5275 22.4196C29.3212 22.166 28.9458 22.1261 28.6897 22.3305L23.4469 26.516C23.385 26.5621 23.3157 26.6004 23.2383 26.6291C23.2383 26.6291 23.1657 26.6496 23.0584 26.6493Z" fill="#212121"/>
</svg>
