<svg width="42" height="42" viewBox="0 0 42 42" fill="none" xmlns="http://www.w3.org/2000/svg">
<g clip-path="url(#clip0_609_377)">
<g clip-path="url(#clip1_609_377)">
<g clip-path="url(#clip2_609_377)">
<path d="M20.9935 29.2634C25.5635 29.2634 29.2682 25.5587 29.2682 20.9887C29.2682 16.4186 25.5635 12.7139 20.9935 12.7139C16.4235 12.7139 12.7188 16.4186 12.7188 20.9887C12.7188 25.5587 16.4235 29.2634 20.9935 29.2634Z" stroke="black" stroke-width="2" stroke-linecap="round" stroke-linejoin="round"/>
<path d="M3.08316 31.3504C2.16874 29.7754 1.4682 28.0856 1 26.3255L4.47124 21.9813C4.43194 21.3172 4.43194 20.6513 4.47124 19.9871L1.00206 15.6429C1.46946 13.8826 2.16858 12.1922 3.08109 10.616L8.60653 9.99535C9.04777 9.49823 9.51819 9.02781 10.0153 8.58657L10.6359 3.0632C12.2098 2.15504 13.8974 1.46008 15.6545 0.996582L19.9987 4.46783C20.6629 4.42853 21.3288 4.42853 21.9929 4.46783L26.3372 0.998651C28.0974 1.46605 29.7878 2.16517 31.364 3.07768L31.9846 8.60312C32.4818 9.04436 32.9522 9.51478 33.3934 10.0119L38.9168 10.6325C39.8312 12.2076 40.5318 13.8974 41 15.6574L37.5287 20.0016C37.568 20.6657 37.568 21.3316 37.5287 21.9958L40.9979 26.34C40.5338 28.0998 39.8381 29.7902 38.9292 31.3669L33.4038 31.9875C32.9625 32.4846 32.4921 32.9551 31.995 33.3963L31.3744 38.9197C29.7994 39.8341 28.1096 40.5346 26.3496 41.0028L22.0053 37.5316C21.3412 37.5709 20.6753 37.5709 20.0111 37.5316L15.6669 41.0008C13.9071 40.5366 12.2167 39.841 10.64 38.9321L10.0194 33.4066C9.52233 32.9654 9.0519 32.495 8.61067 31.9979L3.08316 31.3504Z" stroke="black" stroke-width="2" stroke-linecap="round" stroke-linejoin="round"/>
</g>
</g>
</g>
<defs>
<clipPath id="clip0_609_377">
<rect width="42" height="42" fill="white"/>
</clipPath>
<clipPath id="clip1_609_377">
<rect width="42" height="42" fill="white"/>
</clipPath>
<clipPath id="clip2_609_377">
<rect width="42" height="42" fill="white"/>
</clipPath>
</defs>
</svg>
