<svg width="50" height="50" viewBox="0 0 50 50" fill="none" xmlns="http://www.w3.org/2000/svg">
<g clip-path="url(#clip0_1217_210)">
<path d="M49.7124 34.752L47.3287 32.3878C46.9456 32.0078 46.3272 32.0104 45.9474 32.3935C45.5674 32.7765 45.57 33.3949 45.953 33.7748L48.3366 36.1391C48.527 36.328 48.7758 36.4224 49.0244 36.4224C49.2757 36.4224 49.5269 36.326 49.7179 36.1334C50.0979 35.7504 50.0954 35.1319 49.7124 34.752Z" fill="black"/>
<path d="M44.8991 29.9687C44.5177 29.5873 43.8994 29.5873 43.5178 29.9687L43.5161 29.9704C43.1347 30.3518 43.1355 30.9695 43.517 31.3509C43.7074 31.5415 43.9573 31.6367 44.2071 31.6367C44.4575 31.6367 44.7081 31.5411 44.899 31.3501C45.2805 30.9687 45.2805 30.3502 44.8991 29.9687Z" fill="black"/>
<path d="M36.5716 35.9549L46.047 26.4796C47.4821 25.0444 47.4821 22.7093 46.0469 21.2741C45.5409 20.7681 44.9228 20.4413 44.2718 20.2922C44.4951 19.8123 44.6132 19.2856 44.6132 18.7406C44.6132 17.7574 44.2303 16.8331 43.5352 16.138C42.99 15.5927 42.3036 15.2405 41.5585 15.1137C41.978 13.8357 41.6815 12.3722 40.6671 11.3579C40.1094 10.8003 39.4158 10.4605 38.6918 10.3362C38.8131 9.96816 38.8771 9.57949 38.8771 9.18066C38.8771 8.19746 38.4942 7.27314 37.7991 6.57803C37.1039 5.88291 36.1795 5.5 35.1964 5.5C34.5721 5.5 33.9718 5.65488 33.4385 5.9457L33.3443 5.84443C32.1195 4.52822 30.3858 3.77344 28.588 3.77344H20.9181C20.3788 3.77344 19.9414 4.21084 19.9414 4.7502V6.03105C19.9414 6.54365 20.0281 7.04268 20.1939 7.51191C19.7521 7.32842 19.2741 7.23203 18.7813 7.23203C17.7981 7.23203 16.8738 7.61494 16.1786 8.31006C15.1637 9.3249 14.8675 10.7896 15.2879 12.0679C14.5634 12.1918 13.8688 12.5318 13.3106 13.0899C12.6155 13.7852 12.2326 14.7095 12.2326 15.6926C12.2326 16.0906 12.2963 16.4787 12.4171 16.846C11.673 16.9732 10.9873 17.3252 10.4425 17.87C9.32173 18.9908 9.07632 20.6607 9.7063 22.022C9.03921 22.1744 8.42651 22.5104 7.93062 23.0062C6.49556 24.4412 6.49556 26.7764 7.93062 28.2115L9.87925 30.1601L0.286084 39.753C-0.0953613 40.1345 -0.0953613 40.7529 0.286084 41.1345C0.476807 41.3251 0.726807 41.4206 0.976709 41.4206C1.22661 41.4206 1.47661 41.3252 1.66733 41.1345L11.3531 31.4487C11.9014 31.7616 12.5237 31.929 13.1722 31.929C14.1553 31.929 15.0796 31.5461 15.7749 30.8509C16.5301 30.0957 16.8874 29.0911 16.8476 28.0997C16.8971 28.1018 16.9466 28.1032 16.9961 28.1032C17.9385 28.1031 18.8814 27.7443 19.5988 27.027C20.2939 26.3317 20.6768 25.4074 20.6768 24.4243C20.6768 24.3746 20.6751 24.3252 20.6732 24.2758C20.7221 24.2777 20.771 24.2793 20.8201 24.2793C21.7626 24.2793 22.7052 23.9205 23.4227 23.203C24.1178 22.5078 24.5007 21.5835 24.5007 20.6004C24.5007 20.5507 24.4991 20.5013 24.4971 20.4519C24.546 20.4538 24.595 20.4554 24.644 20.4554C25.5866 20.4554 26.5292 20.0966 27.2466 19.3791C28.5951 18.0307 28.6762 15.8878 27.4908 14.4434L33.9746 7.95957C34.3008 7.6332 34.7344 7.45361 35.1958 7.45361C35.6573 7.45361 36.091 7.6332 36.4172 7.95957C36.7435 8.28584 36.9231 8.71943 36.9231 9.18086C36.9231 9.64219 36.7435 10.076 36.4171 10.4021L35.4612 11.3581L31.9926 14.8267C31.6112 15.2081 31.6112 15.8266 31.9926 16.2081C32.1833 16.3987 32.4333 16.4942 32.6833 16.4942C32.9332 16.4942 33.1832 16.3988 33.3739 16.2081L36.8424 12.7396C37.5158 12.0661 38.6116 12.066 39.2851 12.7395C39.9585 13.413 39.9585 14.5087 39.2851 15.1822L38.3291 16.1383L35.8166 18.6508C35.4351 19.0322 35.4351 19.6507 35.8166 20.0322C36.0073 20.2229 36.2573 20.3184 36.5072 20.3184C36.7571 20.3184 37.0071 20.2229 37.1978 20.0322L39.7103 17.5197C40.0366 17.1934 40.4703 17.0138 40.9316 17.0138C41.393 17.0138 41.8267 17.1934 42.153 17.5197C42.4792 17.846 42.6588 18.2796 42.6588 18.741C42.6588 19.2023 42.4792 19.6361 42.1529 19.9623L40.8407 21.2745L39.6404 22.4748C39.2589 22.8563 39.2589 23.4747 39.6404 23.8563C39.8311 24.0469 40.0811 24.1424 40.331 24.1424C40.5809 24.1424 40.8309 24.047 41.0216 23.8563L42.2228 22.6551C42.8963 21.9827 43.9915 21.9828 44.6646 22.656C45.3381 23.3294 45.3381 24.4252 44.6646 25.0987L35.1892 34.574C32.8099 36.9534 29.6477 38.3309 26.2851 38.4529C26.0379 38.4619 25.8032 38.5644 25.6286 38.7397L16.8754 47.5253C16.4947 47.9074 16.4958 48.5259 16.878 48.9066C17.0685 49.0965 17.3179 49.1915 17.5673 49.1915C17.8178 49.1915 18.0685 49.0957 18.2592 48.9041L24.6974 42.4422C26.3328 43.4913 28.256 43.9901 30.2116 43.8608L35.2504 48.8998C35.4412 49.0904 35.6912 49.1859 35.9411 49.1859C36.1911 49.1859 36.441 49.0905 36.6317 48.8998C37.0131 48.5184 37.0131 47.8999 36.6317 47.5184L31.2743 42.1604C31.0714 41.9576 30.7896 41.854 30.5038 41.8774L30.1941 41.9028C28.7647 42.02 27.3518 41.7069 26.1182 41.0156L26.7459 40.3856C30.4584 40.1566 33.9342 38.5924 36.5716 35.9549ZM14.3936 29.4696C14.0673 29.796 13.6335 29.9756 13.1723 29.9756C12.7109 29.9756 12.2772 29.796 11.951 29.4696L9.31177 26.8305C8.63833 26.157 8.63833 25.0612 9.31177 24.3877C9.63804 24.0613 10.0718 23.8817 10.5332 23.8817C10.9945 23.8817 11.4283 24.0613 11.7544 24.3877L14.3937 27.0269C15.067 27.7003 15.067 28.7961 14.3936 29.4696ZM18.2177 25.6455C17.5442 26.3189 16.4482 26.3189 15.775 25.6455L13.1357 23.0063L11.8234 21.6939C11.15 21.0205 11.15 19.9247 11.8234 19.2513C12.1497 18.9249 12.5834 18.7453 13.0447 18.7453C13.5061 18.7453 13.9398 18.9249 14.266 19.2513L18.2174 23.2027C18.5438 23.5291 18.7235 23.9628 18.7235 24.4241C18.7235 24.8855 18.5439 25.3192 18.2177 25.6455ZM22.0417 21.8215C21.3681 22.4948 20.2722 22.4949 19.5989 21.8215L14.6914 16.914C14.3651 16.5877 14.1855 16.1541 14.1855 15.6927C14.1855 15.2313 14.3651 14.7976 14.6915 14.4714C15.0282 14.1347 15.4706 13.9663 15.9127 13.9663C16.3547 13.9663 16.7966 14.1345 17.1333 14.4706L19.37 16.7073L22.0415 19.3788H22.0416C22.3677 19.7051 22.5473 20.1387 22.5473 20.6001C22.5475 21.0615 22.3679 21.4953 22.0417 21.8215ZM25.8657 17.9975C25.1922 18.6709 24.0964 18.6709 23.423 17.9975L18.5155 13.0899C18.515 13.0895 18.5144 13.089 18.5138 13.0884L17.5594 12.134C16.886 11.4604 16.886 10.3647 17.5594 9.69121C17.8961 9.35439 18.3385 9.18604 18.7808 9.18604C19.2231 9.18604 19.6655 9.35439 20.0021 9.69121L25.8655 15.5546C26.1918 15.8809 26.3714 16.3146 26.3714 16.7759C26.3715 17.2374 26.192 17.6713 25.8657 17.9975ZM26.1225 13.049L23.4397 10.3662C23.7439 10.4312 24.0567 10.4656 24.375 10.4655C24.3822 10.4655 24.3894 10.4655 24.3966 10.4655L27.0771 10.4529C27.6165 10.4504 28.0518 10.011 28.0493 9.47158C28.0467 8.93369 27.6099 8.49941 27.0726 8.49941C27.071 8.49941 27.0695 8.49941 27.0679 8.49941L24.3875 8.51201C24.3834 8.51201 24.3794 8.51201 24.3753 8.51201C23.7149 8.51201 23.0937 8.25566 22.6253 7.78955C22.1541 7.32041 21.8946 6.696 21.8946 6.03096V5.72686H28.5877C29.8451 5.72686 31.0575 6.25469 31.9141 7.1752L31.9539 7.21787L26.1225 13.049Z" fill="black"/>
</g>
<defs>
<clipPath id="clip0_1217_210">
<rect width="50" height="50" fill="white"/>
</clipPath>
</defs>
</svg>
