<svg width="43" height="43" viewBox="0 0 43 43" fill="none" xmlns="http://www.w3.org/2000/svg">
<g clip-path="url(#clip0_1217_168)">
<path d="M42.6338 25.2263C42.4373 25.0298 42.1707 24.9194 41.8928 24.9194C41.6149 24.9194 41.3484 25.0298 41.1519 25.2263L31.8274 34.5508C31.788 34.5902 31.7413 34.6214 31.6898 34.6427C31.6383 34.6641 31.5831 34.675 31.5274 34.675C31.4717 34.675 31.4165 34.6641 31.365 34.6427C31.3135 34.6214 31.2668 34.5902 31.2274 34.5508L28.2049 31.5283C28.0079 31.3344 27.7422 31.2262 27.4657 31.2273C27.1892 31.2284 26.9243 31.3387 26.7288 31.5342C26.5333 31.7297 26.423 31.9946 26.4219 32.271C26.4208 32.5475 26.529 32.8133 26.723 33.0103L31.2274 37.5147C31.2668 37.5541 31.3135 37.5854 31.365 37.6067C31.4165 37.628 31.4717 37.639 31.5274 37.639C31.5831 37.639 31.6383 37.628 31.6898 37.6067C31.7413 37.5854 31.788 37.5541 31.8274 37.5147L42.6338 26.7083C42.7311 26.611 42.8083 26.4955 42.861 26.3683C42.9136 26.2412 42.9407 26.1049 42.9407 25.9673C42.9407 25.8297 42.9136 25.6934 42.861 25.5663C42.8083 25.4391 42.7311 25.3236 42.6338 25.2263Z" fill="black"/>
<path d="M40.856 32.0742C40.5781 32.0742 40.3116 32.1847 40.1151 32.3812C39.9186 32.5777 39.8082 32.8442 39.8082 33.1222C39.8082 34.6613 39.3518 36.1658 38.4967 37.4456C37.6416 38.7253 36.4262 39.7227 35.0043 40.3117C33.5823 40.9007 32.0176 41.0548 30.5081 40.7546C28.9985 40.4543 27.6119 39.7131 26.5236 38.6248C25.4353 37.5365 24.6941 36.1499 24.3939 34.6403C24.0936 33.1308 24.2477 31.5661 24.8367 30.1442C25.4257 28.7222 26.4231 27.5068 27.7029 26.6518C28.9826 25.7967 30.4872 25.3403 32.0263 25.3403C33.2375 25.3365 34.4325 25.6185 35.5143 26.1633C35.7627 26.288 36.0504 26.309 36.3142 26.2216C36.578 26.1342 36.7963 25.9456 36.921 25.6972C37.0458 25.4488 37.0667 25.1611 36.9793 24.8973C36.8919 24.6335 36.7033 24.4152 36.4549 24.2905C35.0815 23.5982 33.5642 23.2398 32.0262 23.2442C30.0726 23.2442 28.1628 23.8235 26.5384 24.9089C24.914 25.9942 23.648 27.5369 22.9004 29.3418C22.1527 31.1467 21.9571 33.1328 22.3382 35.0489C22.7193 36.965 23.6601 38.725 25.0415 40.1064C26.4229 41.4879 28.1829 42.4287 30.099 42.8098C32.0151 43.191 34.0011 42.9954 35.8061 42.2478C37.611 41.5002 39.1537 40.2342 40.2391 38.6099C41.3245 36.9855 41.9039 35.0758 41.9039 33.1222C41.9039 32.8442 41.7935 32.5777 41.597 32.3812C41.4005 32.1847 41.134 32.0742 40.856 32.0742Z" fill="black"/>
<path d="M34.1986 16.9528H32.4349C32.1438 16.9528 31.8646 17.0685 31.6588 17.2743C31.453 17.4801 31.3373 17.7593 31.3373 18.0504C31.3373 18.3415 31.453 18.6207 31.6588 18.8265C31.8646 19.0324 32.1438 19.148 32.4349 19.148H35.3015C35.6041 19.1366 35.8909 19.0097 36.1029 18.7935C36.3149 18.5772 36.4361 18.288 36.4415 17.9852C36.387 13.1965 34.4465 8.62251 31.041 5.2555C27.6355 1.88849 23.0397 8.78599e-05 18.2508 0C8.21961 0 0.0585938 8.16093 0.0585938 18.1921C0.0585938 28.2233 8.21961 36.3841 18.2508 36.3841C18.4861 36.384 18.7151 36.3083 18.9041 36.1682C19.0931 36.028 19.2321 35.8309 19.3006 35.6058C19.3334 35.5119 19.3495 35.4131 19.3481 35.3137V32.2347C19.3456 31.9453 19.2288 31.6685 19.0233 31.4648C18.8177 31.261 18.5399 31.1466 18.2505 31.1466C17.961 31.1466 17.6833 31.261 17.4777 31.4648C17.2721 31.6685 17.1554 31.9453 17.1529 32.2347V34.1506C9.15813 33.6061 2.75794 27.1616 2.283 19.1484H4.06633C4.35743 19.1484 4.6366 19.0328 4.84244 18.827C5.04828 18.6211 5.16392 18.3419 5.16392 18.0508C5.16392 17.7597 5.04828 17.4806 4.84244 17.2747C4.6366 17.0689 4.35743 16.9533 4.06633 16.9533H2.30148C2.90827 9.0709 9.25245 2.77148 17.1531 2.23398V3.86605C17.1556 4.1555 17.2724 4.43223 17.478 4.63601C17.6835 4.83979 17.9613 4.95413 18.2507 4.95413C18.5402 4.95413 18.8179 4.83979 19.0235 4.63601C19.2291 4.43223 19.3458 4.1555 19.3484 3.86605V2.23398C27.218 2.7751 33.589 9.08644 34.1986 16.9528Z" fill="black"/>
<path d="M18.2518 10.7446C17.9607 10.7446 17.6815 10.8603 17.4756 11.0661C17.2698 11.272 17.1541 11.5512 17.1541 11.8423V17.5578L9.73186 21.8359C9.60593 21.9074 9.49537 22.003 9.40656 22.1174C9.31775 22.2317 9.25243 22.3625 9.21438 22.5022C9.17632 22.6419 9.16628 22.7877 9.18482 22.9313C9.20337 23.0749 9.25014 23.2134 9.32244 23.3388C9.39474 23.4643 9.49114 23.5742 9.60609 23.6622C9.72104 23.7502 9.85227 23.8146 9.99222 23.8517C10.1322 23.8888 10.2781 23.8979 10.4215 23.8783C10.565 23.8588 10.7032 23.8111 10.8281 23.7379L18.7999 19.1435C18.8201 19.1319 18.8377 19.1206 18.8542 19.1099C19.0064 19.0102 19.1314 18.8741 19.2179 18.714C19.3044 18.554 19.3497 18.3748 19.3497 18.1929V11.8423C19.3497 11.6981 19.3213 11.5554 19.2661 11.4222C19.2109 11.289 19.1301 11.168 19.0281 11.0661C18.9262 10.9641 18.8051 10.8833 18.6719 10.8281C18.5387 10.773 18.396 10.7446 18.2518 10.7446Z" fill="black"/>
</g>
<defs>
<clipPath id="clip0_1217_168">
<rect width="43" height="43" fill="white"/>
</clipPath>
</defs>
</svg>
