<svg width="45" height="41" viewBox="0 0 45 41" fill="none" xmlns="http://www.w3.org/2000/svg">
<g clip-path="url(#clip0_609_304)">
<g clip-path="url(#clip1_609_304)">
<path d="M29.485 0.346674C26.7516 0.689448 24.361 1.8496 22.445 3.76562C20.7575 5.46191 19.6061 7.69433 19.2106 10.0322C19.0348 11.0869 19.026 12.9502 19.2018 13.9434C19.7379 17.0107 21.5661 19.8672 24.1061 21.625C25.1256 22.3281 26.6286 23.0137 27.8327 23.3301C28.7291 23.5586 29.0631 23.6025 30.3639 23.6377C32.1041 23.6904 33.0006 23.5674 34.4245 23.0928C40.4186 21.0889 43.7409 14.7695 41.9743 8.71386C41.8512 8.29198 41.6491 7.7207 41.526 7.44823C41.403 7.16698 41.3063 6.9121 41.3063 6.87695C41.3063 6.79784 42.2467 5.69042 43.2575 4.57421C43.987 3.76562 44.2067 3.31738 44.2067 2.61425C44.2067 1.73534 43.7233 0.944331 42.9323 0.522456C42.6686 0.381831 42.4225 0.329096 41.9215 0.329096C40.8141 0.329096 40.6119 0.487299 38.6168 2.90429L38.4323 3.13281L37.694 2.57909C36.2702 1.51562 34.275 0.689448 32.4292 0.416987C31.6646 0.29394 30.1442 0.258784 29.485 0.346674ZM33.0358 1.95507C34.0377 2.19238 35.1364 2.62304 35.945 3.09765C36.5953 3.47558 37.4391 4.11718 37.4391 4.23144C37.4391 4.27538 31.4362 11.4824 31.0582 11.8779C31.0319 11.9043 30.2584 11.166 29.3268 10.2432C27.4371 8.35351 27.1998 8.19531 26.277 8.19531C24.9586 8.19531 23.9655 9.15331 23.9567 10.4365C23.9479 11.4297 23.9479 11.4209 26.9274 14.418C28.4303 15.9385 29.819 17.2568 30.0123 17.3623C30.2848 17.5117 30.5133 17.5557 31.0758 17.5557C31.7086 17.5557 31.8316 17.5293 32.2095 17.292C32.7896 16.9316 33.8707 15.7188 37.2897 11.623C38.8717 9.71581 40.2077 8.14257 40.2428 8.12499C40.2868 8.1162 40.4186 8.43261 40.5416 8.82812C42.1061 13.7852 39.8561 19.0059 35.1891 21.2646C34.653 21.5195 33.818 21.8447 33.3434 21.9678C32.5436 22.1875 32.3327 22.2051 30.7594 22.2051C29.151 22.2139 28.9928 22.1963 28.1842 21.9678C23.5348 20.6758 20.4762 16.7295 20.4762 12.0361C20.4762 9.1621 21.4694 6.74511 23.4996 4.71484C25.0641 3.14159 27.0592 2.13964 29.3092 1.77929C30.1969 1.64745 32.1041 1.73534 33.0358 1.95507ZM42.3522 1.81445C42.6334 1.96386 42.8004 2.28906 42.8004 2.70214C42.8004 2.94823 42.695 3.11523 42.2028 3.64257C41.3414 4.57421 39.944 6.22656 36.736 10.085C32.2799 15.4551 31.6032 16.1934 31.111 16.1934C30.9616 16.1934 30.733 16.1406 30.6012 16.0703C30.2409 15.877 25.5123 11.0869 25.4069 10.8145C25.1871 10.2168 25.6442 9.60156 26.3034 9.60156C26.6549 9.60156 26.7077 9.6455 28.694 11.623C30.5661 13.4775 30.7506 13.6445 31.0319 13.6445C31.278 13.6445 31.4098 13.5742 31.6911 13.2666C31.8932 13.0645 34.152 10.4014 36.7184 7.34277C39.2936 4.29296 41.4645 1.7705 41.5436 1.75292C41.8512 1.67382 42.1061 1.6914 42.3522 1.81445Z" fill="black"/>
<path d="M15.9782 21.4666C14.7125 21.6863 14.0797 21.9851 10.0367 24.3318C8.41956 25.2723 7.06604 26.0369 7.0221 26.0369C6.98694 26.0369 6.79358 25.7644 6.60022 25.4305C6.02893 24.4637 5.50159 24.1385 4.62268 24.2088C4.26233 24.2351 3.91956 24.3933 2.85608 24.9822C2.13538 25.3865 1.3971 25.8611 1.23011 26.0369C0.711552 26.5642 0.570927 27.3553 0.869755 28.0144C1.06311 28.4451 7.4264 39.6951 7.65491 40.0291C7.75159 40.1609 8.04163 40.3719 8.31409 40.5037C9.10511 40.8904 9.44788 40.8113 11.1793 39.8181C12.9459 38.8074 13.1393 38.5877 13.1393 37.6121C13.1393 37.0232 13.1129 36.9353 12.7262 36.241C12.4889 35.8455 12.3219 35.4851 12.3395 35.45C12.3658 35.4236 12.6735 35.239 13.025 35.0545L13.6754 34.7117L18.6764 36.0564C21.4362 36.7947 23.941 37.4539 24.2575 37.5242C25.1188 37.7176 26.4108 37.6385 27.2809 37.3396C28.0543 37.076 28.2916 36.9353 37.1334 31.4949C43.4879 27.5838 43.7692 27.3904 44.068 26.5027C44.9469 23.9803 43.0748 21.8181 40.4117 22.2576C39.6823 22.3806 38.777 22.6883 38.0299 23.0662C37.7487 23.2068 35.6217 24.4285 33.3014 25.782C29.8121 27.8123 28.4059 28.5857 28.1774 28.5857C28.1686 28.5857 28.2477 28.2957 28.3707 27.9441C28.6256 27.1707 28.5992 26.5467 28.2741 25.8348C27.7994 24.7889 27.1051 24.3055 25.567 23.9715C24.1608 23.6551 22.8248 23.2508 20.2584 22.3455C17.569 21.4051 17.0328 21.2908 15.9782 21.4666ZM19.151 23.4617C21.7086 24.3582 23.2379 24.8416 24.4772 25.1492C26.2526 25.5799 26.2701 25.5887 26.6305 25.9139C26.8151 26.0896 27.0172 26.3621 27.0787 26.5379C27.2721 27.1443 26.9645 28.0144 26.4459 28.2781C25.7867 28.6209 25.1891 28.533 21.6647 27.5398C20.7946 27.2937 19.986 27.0916 19.8717 27.0916C19.3532 27.0916 19.0543 27.8123 19.4059 28.2254C19.6432 28.5154 24.2575 29.7723 25.901 29.992C27.0436 30.1502 28.1862 30.0711 28.9772 29.781C29.7067 29.5086 29.4606 29.6492 34.3649 26.7928C36.4215 25.5887 38.3639 24.4812 38.6803 24.323C40.5172 23.3914 42.0465 23.3914 42.6178 24.3142C42.9869 24.9119 42.9342 25.949 42.5123 26.4236C42.2047 26.7752 27.6325 35.7049 26.9821 35.951C26.1559 36.2586 25.1979 36.3025 24.2575 36.074C23.8444 35.9773 21.2867 35.3006 18.5709 34.5711C15.8551 33.8416 13.57 33.2439 13.4821 33.2439C13.403 33.2439 12.9547 33.4637 12.5065 33.7273C12.0494 33.991 11.6539 34.2107 11.6188 34.2107C11.5485 34.2107 7.79554 27.5926 7.75159 27.408C7.73401 27.3113 10.1071 25.8963 14.1061 23.6111C15.0289 23.0838 16.2155 22.7674 16.9977 22.8377C17.3053 22.864 18.1754 23.1189 19.151 23.4617ZM5.11487 25.7469C5.38733 26.0545 11.777 37.4363 11.777 37.6121C11.777 37.8494 11.6364 37.9549 10.3619 38.6756C9.23694 39.3172 8.97327 39.4051 8.79749 39.1941C8.56018 38.9041 2.10901 27.408 2.10901 27.2674C2.10901 27.1795 2.17054 27.0564 2.24964 26.9949C2.55725 26.7312 4.62268 25.6062 4.79847 25.5974C4.89515 25.5974 5.04456 25.6678 5.11487 25.7469Z" fill="black"/>
<path d="M4.02542 27.3116C3.55081 27.5752 3.52444 28.3047 3.97268 28.6211C4.77249 29.1836 5.66897 28.0411 4.91311 27.4083C4.61428 27.1534 4.37698 27.127 4.02542 27.3116Z" fill="black"/>
</g>
</g>
<defs>
<clipPath id="clip0_609_304">
<rect width="45" height="41" fill="white"/>
</clipPath>
<clipPath id="clip1_609_304">
<rect width="45" height="41" fill="white"/>
</clipPath>
</defs>
</svg>
