<svg width="41" height="41" viewBox="0 0 41 41" fill="none" xmlns="http://www.w3.org/2000/svg">
<g clip-path="url(#clip0_1217_27)">
<path d="M29.4343 20.5728C28.6464 20.1983 27.8425 19.8756 27.0245 19.6054C29.6737 17.6169 31.3906 14.4505 31.3906 10.8906C31.3906 4.88557 26.5051 0 20.5 0C14.4948 0 9.60934 4.88557 9.60934 10.8906C9.60934 14.4544 11.3301 17.6239 13.9843 19.612C11.5524 20.4126 9.27061 21.6584 7.27347 23.3011C3.61133 26.3134 1.06509 30.515 0.103911 35.1321C-0.197343 36.5788 0.163569 38.0647 1.09392 39.2087C2.0197 40.3471 3.39248 41 4.86015 41H24.584C25.4685 41 26.1855 40.283 26.1855 39.3984C26.1855 38.5139 25.4685 37.7969 24.584 37.7969H4.86015C4.17644 37.7969 3.76396 37.4152 3.57898 37.1878C3.25955 36.795 3.13591 36.2837 3.23977 35.7849C4.90179 27.8015 11.9435 21.9698 20.0754 21.7731C20.2163 21.7785 20.3577 21.7812 20.5 21.7812C20.6435 21.7812 20.7865 21.7784 20.9287 21.7729C23.4207 21.8314 25.8175 22.4001 28.0592 23.4658C28.8581 23.8453 29.8135 23.5057 30.1932 22.7068C30.5729 21.9079 30.2332 20.9525 29.4343 20.5728ZM20.8906 18.5683C20.7606 18.566 20.6304 18.5648 20.5 18.5648C20.3707 18.5648 20.2415 18.566 20.1124 18.5684C16.0528 18.3659 12.8125 14.9996 12.8125 10.8906C12.8125 6.65169 16.261 3.20312 20.5 3.20312C24.7389 3.20312 28.1875 6.65169 28.1875 10.8906C28.1875 14.9986 24.9487 18.3642 20.8906 18.5683Z" fill="black"/>
<path d="M39.3984 31.791H34.9941V27.3867C34.9941 26.5022 34.2771 25.7852 33.3926 25.7852C32.508 25.7852 31.791 26.5022 31.791 27.3867V31.791H27.3867C26.5022 31.791 25.7852 32.508 25.7852 33.3926C25.7852 34.2771 26.5022 34.9941 27.3867 34.9941H31.791V39.3984C31.791 40.283 32.508 41 33.3926 41C34.2771 41 34.9941 40.283 34.9941 39.3984V34.9941H39.3984C40.283 34.9941 41 34.2771 41 33.3926C41 32.508 40.283 31.791 39.3984 31.791Z" fill="black"/>
</g>
<defs>
<clipPath id="clip0_1217_27">
<rect width="41" height="41" fill="white"/>
</clipPath>
</defs>
</svg>
