<svg width="42" height="42" viewBox="0 0 42 42" fill="none" xmlns="http://www.w3.org/2000/svg">
<g clip-path="url(#clip0_609_361)">
<g clip-path="url(#clip1_609_361)">
<g clip-path="url(#clip2_609_361)">
<path d="M35.6639 9.98694C37.4687 9.98694 38.9319 8.52381 38.9319 6.71896C38.9319 4.91411 37.4687 3.45098 35.6639 3.45098M35.6639 9.98694C33.859 9.98694 32.3959 8.52381 32.3959 6.71896C32.3959 4.91411 33.859 3.45098 35.6639 3.45098M35.6639 9.98694V12.4379M35.6639 3.45098V1M32.833 5.08497L30.7109 3.85948M32.833 8.35295L30.7109 9.57844M38.4948 8.35295L40.6169 9.57844M38.4948 5.08497L40.6169 3.85948M7.84519 36.0021C9.07459 33.5805 10.9505 31.5467 13.2651 30.1261C15.5796 28.7054 18.2423 27.9534 20.958 27.9534C23.6737 27.9534 26.3364 28.7054 28.6509 30.1261C30.9654 31.5467 32.8414 33.5805 34.0707 36.0021M40.2942 18.1569C40.9836 22.2528 40.3533 26.4618 38.4946 30.1761C36.6358 33.8905 33.6446 36.918 29.953 38.8215C26.2613 40.725 22.0603 41.406 17.9563 40.7661C13.8524 40.1263 10.0581 38.1987 7.12106 35.2618C4.1841 32.3248 2.25653 28.5304 1.61669 24.4265C0.976853 20.3226 1.65785 16.1215 3.56135 12.4299C5.46485 8.73824 8.49234 5.74708 12.2067 3.8883C15.9211 2.02951 20.1301 1.3993 24.226 2.08865M29.1279 19.7909C29.1279 24.303 25.4701 27.9608 20.958 27.9608C16.4459 27.9608 12.788 24.303 12.788 19.7909C12.788 15.2787 16.4459 11.6209 20.958 11.6209C25.4701 11.6209 29.1279 15.2787 29.1279 19.7909Z" stroke="#090F1F" stroke-width="2" stroke-linecap="round" stroke-linejoin="round"/>
</g>
</g>
</g>
<defs>
<clipPath id="clip0_609_361">
<rect width="42" height="42" fill="white"/>
</clipPath>
<clipPath id="clip1_609_361">
<rect width="42" height="42" fill="white"/>
</clipPath>
<clipPath id="clip2_609_361">
<rect width="42" height="42" fill="white"/>
</clipPath>
</defs>
</svg>
