<svg width="42" height="48" viewBox="0 0 42 48" fill="none" xmlns="http://www.w3.org/2000/svg">
<path fill-rule="evenodd" clip-rule="evenodd" d="M0.619418 5.47523C6.08638 5.04585 10.8484 2.67086 14.4488 0.124093C14.5628 0.0433945 14.6994 0 14.8396 0H26.5773C26.7175 0 26.8541 0.0433945 26.9682 0.124093C30.5685 2.67086 35.3305 5.04585 40.7975 5.47523C41.1472 5.50263 41.4169 5.79174 41.4169 6.13928V23.4784C41.4169 29.2448 38.4825 34.5593 34.4238 38.7167C30.3953 42.843 25.2668 45.8234 20.8826 46.988C20.7685 47.0183 20.6483 47.0183 20.5342 46.988C16.1515 45.8234 11.023 42.843 6.99413 38.7167C2.9351 34.5594 0 29.2448 0 23.4784V6.13928C0 5.79174 0.269692 5.50263 0.619418 5.47523ZM1.3451 6.74661V23.4784C1.3451 28.9009 4.14405 33.8811 7.96106 37.7905C11.7549 41.6762 16.5625 44.5097 20.7085 45.654C24.8558 44.5097 29.6633 41.6762 33.4568 37.7905C37.2735 33.8811 40.0718 28.9009 40.0718 23.4784V6.74661C34.6874 6.18305 29.9782 3.85811 26.363 1.33229H15.054C11.4386 3.85811 6.72953 6.18305 1.3451 6.74661ZM15.5258 3.46147C15.533 3.44225 15.5373 3.43178 15.5373 3.43169C15.6121 3.38601 15.6923 3.3566 15.774 3.34233C15.7992 3.33757 15.8273 3.33443 15.8585 3.3331C15.87 3.33253 15.8818 3.33234 15.8936 3.33234C15.9108 3.33234 16.0045 3.33243 16.1606 3.33243H25.5289C25.6626 3.33243 25.7933 3.37183 25.9042 3.44577C29.4303 5.7945 33.3507 7.56701 37.5128 8.38028C37.8661 8.44927 38.0538 8.64959 38.0551 9.03814V9.43821V23.4784C38.0551 27.041 36.5974 30.5655 34.3182 33.6739C30.9463 38.2722 25.7775 41.958 20.9144 43.507C20.7804 43.5496 20.6364 43.5496 20.5026 43.507C15.6394 41.9579 10.4706 38.2712 7.09875 33.6726C4.81949 30.5643 3.36178 27.0398 3.36178 23.4784V9.03377C3.36178 8.71554 3.58891 8.44185 3.90415 8.38028C8.06636 7.56701 11.9868 5.7944 15.5155 3.44568L15.5258 3.46147ZM36.71 9.57591C32.6414 8.69936 28.8006 6.95407 25.3247 4.66472C24.0849 4.66472 17.5718 4.66472 16.1606 4.66472H16.0947C12.6165 6.95416 8.77552 8.69936 4.70688 9.57591V23.4784C4.70688 26.7697 6.08071 30.0171 8.18713 32.8897C11.3425 37.1932 16.1495 40.6628 20.7085 42.1718C25.2674 40.6629 30.0744 37.1941 33.2299 32.8909C35.3362 30.0184 36.71 26.7707 36.71 23.4784C36.71 23.4784 36.71 12.2024 36.71 9.57591ZM17.4134 11.2822C21.3504 10.1581 25.7702 11.0885 28.9296 14.1047C32.7479 17.75 33.56 23.3293 31.3095 27.7951C31.1436 28.1241 30.7394 28.2579 30.4073 28.0937C30.0752 27.9295 29.9402 27.5292 30.1059 27.2002C32.101 23.2413 31.3809 18.2954 27.9962 15.064C25.2422 12.4349 21.408 11.5938 17.9626 12.5135L18.3834 12.5696C18.7512 12.6186 19.0097 12.9542 18.9602 13.3186C18.9107 13.683 18.5719 13.939 18.204 13.89L15.262 13.4979C15.0239 13.4662 14.8209 13.311 14.7296 13.0909C14.6383 12.8708 14.6724 12.619 14.8192 12.4307L16.6331 10.1031C16.8599 9.81211 17.2826 9.75815 17.5764 9.98283C17.8703 10.2075 17.9247 10.6261 17.6979 10.9171L17.4134 11.2822ZM23.4748 32.5871L23.0327 32.5267C22.665 32.4765 22.4076 32.14 22.4583 31.7758C22.509 31.4116 22.8487 31.1567 23.2164 31.2068L26.1571 31.6084C26.3951 31.641 26.5976 31.7968 26.6882 32.0172C26.7788 32.2376 26.7437 32.4892 26.5963 32.6771L24.7749 34.9988C24.5471 35.2891 24.1242 35.3416 23.8311 35.1161C23.538 34.8904 23.4849 34.4716 23.7127 34.1813L23.9901 33.8276C20.0566 34.9458 15.6431 34.0142 12.4873 31.0013C8.66906 27.3561 7.85691 21.7767 10.1075 17.3109C10.2733 16.9819 10.6775 16.8482 11.0096 17.0124C11.3417 17.1765 11.4768 17.577 11.311 17.9058C9.31596 21.8647 10.036 26.8107 13.4207 30.042C16.1802 32.6763 20.0242 33.5156 23.4748 32.5871ZM19.3811 22.7132L24.0547 18.9821C24.8886 18.3163 26.1115 18.4464 26.7838 19.2725C27.456 20.0986 27.3247 21.3098 26.4906 21.9757L20.1741 27.0184C19.7514 27.3559 19.2053 27.5026 18.6683 27.4229C18.1314 27.3431 17.6528 27.0443 17.3485 26.5989L15.0487 23.232C14.4484 22.3533 14.6814 21.1571 15.5686 20.5625C16.4558 19.968 17.6635 20.1987 18.2637 21.0776L19.3811 22.7132ZM19.2674 24.3382C19.2252 24.3381 19.2284 24.3372 19.2284 24.3372C19.0558 24.3285 18.8148 24.2618 18.634 23.9971L17.1497 21.8241C16.9654 21.5543 16.5948 21.4835 16.3224 21.666C16.05 21.8486 15.9785 22.2157 16.1628 22.4855L18.4626 25.8524C18.556 25.9891 18.7029 26.0809 18.8678 26.1053C19.0326 26.1298 19.2002 26.0848 19.3299 25.9811L25.6465 20.9383C25.9026 20.734 25.9429 20.3621 25.7365 20.1086C25.5302 19.855 25.1548 19.815 24.8987 20.0194L19.6559 24.205C19.5939 24.2511 19.5247 24.2893 19.4473 24.3181C19.4473 24.3181 19.3747 24.3386 19.2674 24.3382Z" fill="#212121"/>
</svg>
